<?xml version="1.0" encoding="UTF-8" standalone="no"?>
<!-- Created with Inkscape (http://www.inkscape.org/) -->

<svg
   xmlns:dc="http://purl.org/dc/elements/1.1/"
   xmlns:cc="http://creativecommons.org/ns#"
   xmlns:rdf="http://www.w3.org/1999/02/22-rdf-syntax-ns#"
   xmlns:svg="http://www.w3.org/2000/svg"
   xmlns="http://www.w3.org/2000/svg"
   xmlns:xlink="http://www.w3.org/1999/xlink"
   xmlns:sodipodi="http://sodipodi.sourceforge.net/DTD/sodipodi-0.dtd"
   xmlns:inkscape="http://www.inkscape.org/namespaces/inkscape"
   height="512"
   id="svg1092"
   inkscape:version="0.48.1 "
   sodipodi:docname="bsirootsh.svg"
   sodipodi:version="0.32"
   width="512"
   inkscape:output_extension="org.inkscape.output.svg.inkscape"
   version="1.0"
   inkscape:export-filename="F:\projects\svgs\bsiroot.png"
   inkscape:export-xdpi="90"
   inkscape:export-ydpi="90"
   style="display:inline">
  <metadata
     id="metadata3">
    <rdf:RDF>
      <cc:Work
         rdf:about="">
        <dc:title />
        <dc:description />
        <dc:subject>
          <rdf:Bag>
            <rdf:li>genealogy</rdf:li>
            <rdf:li>tree</rdf:li>
            <rdf:li>plant</rdf:li>
          </rdf:Bag>
        </dc:subject>
        <dc:publisher>
          <cc:Agent
             rdf:about="http://www.openclipart.org">
            <dc:title>Nathan Eady</dc:title>
          </cc:Agent>
        </dc:publisher>
        <dc:creator>
          <cc:Agent>
            <dc:title>Nathan Eady</dc:title>
          </cc:Agent>
        </dc:creator>
        <dc:rights>
          <cc:Agent>
            <dc:title>Nathan Eady</dc:title>
          </cc:Agent>
        </dc:rights>
        <dc:date />
        <dc:format>image/svg+xml</dc:format>
        <dc:type
           rdf:resource="http://purl.org/dc/dcmitype/StillImage" />
        <cc:license
           rdf:resource="http://web.resource.org/cc/PublicDomain" />
        <dc:language>en</dc:language>
      </cc:Work>
      <cc:License
         rdf:about="http://web.resource.org/cc/PublicDomain">
        <cc:permits
           rdf:resource="http://web.resource.org/cc/Reproduction" />
        <cc:permits
           rdf:resource="http://web.resource.org/cc/Distribution" />
        <cc:permits
           rdf:resource="http://web.resource.org/cc/DerivativeWorks" />
      </cc:License>
    </rdf:RDF>
  </metadata>
  <defs
     id="defs1095">
    <linearGradient
       id="linearGradient3857">
      <stop
         style="stop-color:#ffffff;stop-opacity:0;"
         offset="0"
         id="stop3859" />
      <stop
         style="stop-color:#ffffff;stop-opacity:1;"
         offset="1"
         id="stop3861" />
    </linearGradient>
    <linearGradient
       id="linearGradient2362">
      <stop
         id="stop2363"
         offset="0.0000000"
         style="stop-color:#00b207;stop-opacity:1.0000000;" />
      <stop
         id="stop2365"
         offset="0.50000000"
         style="stop-color:#83d400;stop-opacity:1.0000000;" />
      <stop
         id="stop2364"
         offset="1.0000000"
         style="stop-color:#00b207;stop-opacity:1.0000000;" />
    </linearGradient>
    <linearGradient
       gradientTransform="matrix(0.961323,0,0,1.040233,-9.798618,36.18994)"
       gradientUnits="userSpaceOnUse"
       id="linearGradient2367"
       inkscape:collect="always"
       x1="104.28708"
       x2="138.49277"
       xlink:href="#linearGradient2362"
       y1="154.81216"
       y2="154.81216" />
    <pattern
       height="35.269390"
       id="pattern2368"
       patternTransform="translate(93.85020,187.0638)"
       patternUnits="userSpaceOnUse"
       width="35.989169">
      <path
         d="M 126.06051,222.06325 L 129.83937,222.19821 L 95.289771,222.15322 C 94.360051,210.36677 94.060141,203.70877 93.850201,187.06378 C 95.559691,204.21862 95.469711,208.50733 96.009551,219.63398 C 96.099521,213.06595 96.549391,207.12774 97.629061,200.73966 C 97.689041,207.93750 97.389131,214.50552 96.729331,221.25349 C 97.089221,221.49342 97.449121,221.73335 97.809011,221.97328 L 100.86809,221.97328 C 99.728431,219.69396 99.218591,217.32468 99.068631,215.67517 C 99.968361,217.17472 100.68814,218.85421 101.22798,221.25349 C 100.44822,216.48493 99.938371,211.98627 99.968361,207.21771 C 100.92807,212.79603 101.52789,215.85512 101.76782,220.17382 C 101.94777,217.23470 101.85779,214.47554 102.30766,211.35647 C 102.69754,215.07536 102.72754,218.61429 102.30766,221.88331 L 107.88598,221.97328 C 107.10622,216.87481 106.59637,212.76605 106.62636,206.67788 C 107.82600,212.49613 107.94596,216.15503 108.60576,220.89360 C 108.36583,215.07535 107.85599,212.94599 109.59546,204.06866 C 109.02563,213.42585 108.72572,215.31528 110.22527,222.33317 L 116.16349,222.33317 C 116.37342,212.97598 116.31344,208.74726 115.44370,196.96080 C 117.75301,207.27769 117.27315,211.02657 116.79330,220.17381 C 117.33314,212.49612 117.15319,195.73117 120.12230,189.67299 C 118.29285,199.42006 117.99294,210.78664 117.42311,221.97328 L 123.72121,221.97328 C 122.88147,217.83452 122.13169,213.69577 122.28165,209.55701 C 123.21137,215.70516 123.60125,218.16442 124.89086,220.62368 C 124.44099,215.25530 125.07081,209.79694 126.42040,204.87842 C 125.82058,211.56641 125.17470,219.61376 126.06051,222.06325 z "
         id="path2369"
         sodipodi:nodetypes="cccccccccccccccccccccccccccccc"
         style="fill:url(#linearGradient2367);fill-opacity:1.0000000;fill-rule:evenodd;stroke:none;stroke-width:0.25000000pt;stroke-linecap:butt;stroke-linejoin:miter;stroke-opacity:1.0000000"
         transform="translate(-93.85020,-187.0638)" />
    </pattern>
    <radialGradient
       inkscape:collect="always"
       xlink:href="#linearGradient3857"
       id="radialGradient3863"
       cx="175.54582"
       cy="274.71097"
       fx="175.54582"
       fy="274.71097"
       r="223.46875"
       gradientTransform="matrix(1.4145748,0.28804422,-0.27749164,1.3627513,21.108844,-84.88093)"
       gradientUnits="userSpaceOnUse" />
  </defs>
  <sodipodi:namedview
     bordercolor="#666666"
     borderopacity="1.0"
     id="base"
     inkscape:current-layer="layer3"
     inkscape:cx="356.64919"
     inkscape:cy="330.35592"
     inkscape:pageopacity="0"
     inkscape:pageshadow="2"
     inkscape:window-height="1178"
     inkscape:window-width="1600"
     inkscape:window-x="-8"
     inkscape:window-y="-8"
     inkscape:zoom="0.98994949"
     pagecolor="#ffffff"
     showgrid="false"
     inkscape:window-maximized="1"
     inkscape:snap-bbox="false"
     inkscape:object-nodes="true"
     inkscape:snap-nodes="false"
     inkscape:snap-page="false"
     inkscape:snap-grids="false"
     inkscape:snap-to-guides="false" />
  <g
     inkscape:groupmode="layer"
     id="layer7"
     inkscape:label="bg"
     style="display:none">
    <rect
       style="fill:#927e49;fill-opacity:1;stroke:none;display:inline"
       id="rect3852"
       width="512"
       height="512"
       x="0"
       y="0" />
  </g>
  <g
     inkscape:groupmode="layer"
     id="layer2"
     inkscape:label="shell"
     style="display:inline">
    <path
       inkscape:connector-curvature="0"
       id="path3024"
       style="fill:#ee2722;fill-opacity:1;fill-rule:nonzero;stroke:none"
       d="m 233.29233,421.12107 -96.2804,0 -9.08306,-71.01001 -57.336797,-41.956 c -2.54041,-12.475 -3.82482,-25.19198 -3.82482,-37.93027 0,-104.74342 84.727977,-189.665927 189.232727,-189.665927 104.5042,0 189.23277,84.922507 189.23277,189.665927 0,12.73829 -1.28434,25.45527 -3.82397,37.93027 l -57.3377,41.956 -9.08306,71.01001 -96.2804,0 -6.01117,4.87198 c -4.84672,3.53486 -10.69984,5.44809 -16.69647,5.44809 -5.99664,0 -11.84976,-1.91323 -16.69721,-5.44809" />
    <path
       inkscape:connector-curvature="0"
       id="path3026"
       style="fill:#fcd006;fill-opacity:1;fill-rule:nonzero;stroke:none"
       d="m 236.92556,388.34722 -70.84785,0 -5.44983,-56.44386 -58.20261,-41.57891 c -1.68163,-6.56479 -2.540347,-13.32876 -2.540347,-20.09966 0,-11.323 2.384307,-22.52474 6.989777,-32.86671 l 100.98507,103.64913 -98.1537,-122.93109 c 3.88864,-15.88075 12.51047,-30.20474 24.70865,-41.05289 l 87.97794,153.05936 -77.87304,-167.61095 c 10.16885,-13.55563 24.35404,-23.56258 40.51897,-28.56969 l 53.70358,190.71833 -39.09257,-198.5713 c 12.0563,-6.81332 25.66672,-10.39842 39.50421,-10.39842 2.93092,0 5.86112,0.16387 8.77133,0.48432 l 8.98314,206.66463 7.16653,-206.66463 c 2.91021,-0.32045 5.84041,-0.48432 8.7706,-0.48432 13.83895,0 27.449,3.5851 39.50585,10.39842 l -39.09348,198.5713 53.70449,-190.71833 c 16.1642,5.00711 30.35012,15.01406 40.5177,28.56969 l -77.87268,167.61095 87.97849,-153.05936 c 12.19854,10.84815 20.82018,25.17214 24.70773,41.05289 L 304.14018,341.00721 405.1256,237.35808 c 4.60511,10.34197 6.99032,21.54371 6.99032,32.86671 0,6.7709 -0.85925,13.53487 -2.54143,20.09966 l -58.20242,41.57891 -5.44983,56.44386 -70.84785,0 -10.16939,7.94457 c -2.58322,1.88467 -5.70416,2.90176 -8.90502,2.90176 -3.20087,0 -6.32181,-1.01709 -8.90503,-2.90176" />
    <path
       inkscape:connector-curvature="0"
       id="path3028"
       style="fill:none;stroke:none"
       d="m 236.92556,388.34722 -70.84785,0 -5.44983,-56.44386 -58.20261,-41.57891 c -1.68163,-6.56479 -2.540347,-13.32876 -2.540347,-20.09966 0,-11.323 2.384307,-22.52474 6.989777,-32.86671 l 100.98507,103.64913 -98.1537,-122.93109 c 3.88864,-15.88075 12.51047,-30.20474 24.70865,-41.05289 l 87.97794,153.05936 -77.87304,-167.61095 c 10.16885,-13.55563 24.35404,-23.56258 40.51897,-28.56969 l 53.70358,190.71833 -39.09257,-198.5713 c 12.0563,-6.81332 25.66672,-10.39842 39.50421,-10.39842 2.93092,0 5.86112,0.16387 8.77133,0.48432 l 8.98314,206.66463 7.16653,-206.66463 c 2.91021,-0.32045 5.84041,-0.48432 8.7706,-0.48432 13.83895,0 27.449,3.5851 39.50585,10.39842 l -39.09348,198.5713 53.70449,-190.71833 c 16.1642,5.00711 30.35012,15.01406 40.5177,28.56969 l -77.87268,167.61095 87.97849,-153.05936 c 12.19854,10.84815 20.82018,25.17214 24.70773,41.05289 L 304.14018,341.00721 405.1256,237.35808 c 4.60511,10.34197 6.99032,21.54371 6.99032,32.86671 0,6.7709 -0.85925,13.53487 -2.54143,20.09966 l -58.20242,41.57891 -5.44983,56.44386 -70.84785,0 -10.16939,7.94457 c -2.58322,1.88467 -5.70416,2.90176 -8.90502,2.90176 -3.20087,0 -6.32181,-1.01709 -8.90503,-2.90176 l -10.16939,-7.94457 z" />
  </g>
  <g
     inkscape:groupmode="layer"
     id="layer4"
     inkscape:label="Blow">
    <path
       inkscape:connector-curvature="0"
       d="m 479.45901,145.52875 0,325.28393 -446.786741,0 -0.136751,-39.63475 c 25.38374,13.45778 82.606592,20.40548 124.238122,21.85521 C 280.1638,457.437 404.83957,419.08785 402.65132,334.9221 401.14689,277.0428 267.14369,253.92937 185.00211,251.82319 l 5.90828,-6.15447 c 138.02413,3.30974 251.97745,-15.75544 288.54865,-100.13997"
       id="path5051"
       style="display:inline;fill:#002a44;fill-opacity:1;fill-rule:nonzero;stroke:none" />
  </g>
  <g
     inkscape:groupmode="layer"
     id="layer1"
     inkscape:label="Bhigh"
     style="display:inline">
    <path
       inkscape:connector-curvature="0"
       d="m 391.19579,41.187325 88.26869,0 0,30.79968 C 465.8426,57.489815 439.25531,45.892085 391.19579,41.187325"
       id="path5047"
       style="fill:#002a44;fill-opacity:1;fill-rule:nonzero;stroke:none" />
    <path
       inkscape:connector-curvature="0"
       d="m 32.672269,324.24344 0,-283.050645 247.163281,0 c -49.61865,3.33711 -83.01689,12.55511 -119.25985,23.05873 -22.56636,7.49477 -61.982278,19.8037 -85.615421,33.72646 -19.14722,11.242155 -41.93243,29.897025 -36.89944,50.056325 4.89621,19.47545 62.529361,-4.84151 87.201921,-11.73453 76.37006,-21.39018 183.26626,-36.735315 199.73288,-37.966195 83.09894,-4.81416 103.14882,16.302495 103.86,29.568775 -1.69591,19.77635 -36.5165,57.2502 -198.39257,75.93242 59.43843,-58.4811 64.47142,-66.33145 69.47705,-76.5342 -71.63795,0 -104.70794,39.79888 -151.26305,77.79245 -7.05712,1.77795 -59.110201,2.07883 -86.955721,23.66049 -9.737751,7.52212 -23.66051,14.60658 -15.290441,27.81817 5.990341,9.5189 31.59293,5.03298 40.34593,5.58004 -19.8584,22.0193 -42.91711,48.79807 -54.10457,62.09171"
       id="path5055"
       style="fill:#002a44;fill-opacity:1;fill-rule:nonzero;stroke:none" />
  </g>
  <g
     inkscape:groupmode="layer"
     id="layer3"
     inkscape:label="root"
     style="display:inline">
    <path
       style="fill:#7b5517;fill-opacity:1;fill-rule:evenodd;stroke:none;display:inline"
       d="m 213.7605,21.303581 c -0.78331,1.756057 -1.53835,39.530866 -2.37934,41.219109 l -11.18936,22.386278 -89.70783,22.472382 88.10016,-9.298928 -12.08965,14.034498 -51.8955,25.8303 -81.605182,-11.79585 33.889619,14.8094 -46.043576,64.8341 56.204029,-60.01246 39.61295,3.70235 -30.41709,55.10468 44.37161,-60.95953 44.37162,-13.34568 -3.02241,40.72581 14.66192,-36.59296 21.47843,-35.904136 c 6.09463,-10.195058 7.49711,47.685596 0,67.761526 -7.16584,19.18885 -45.06,48.50221 -43.98577,53.29656 1.02047,4.5544 43.5901,-35.47637 50.28782,-25.2276 7.96523,12.18825 8.17972,66.10476 -6.30205,81.27942 l -12.02535,12.65683 -85.59218,-9.1267 -59.290785,-40.46751 49.709075,42.18952 c -21.14071,3.79064 -43.258583,0.40856 -67.586325,15.5843 -18.2346,11.37483 -32.294115,20.10894 -50.5450542,32.2879 17.3590552,-5.11625 49.6613452,-25.27062 69.8370562,-32.1157 19.101393,-6.48056 39.660353,-5.23505 59.483683,-7.83519 l 64.30669,6.62978 -66.62173,36.07635 -39.355687,-19.80325 30.867207,23.5917 -79.161529,54.50196 35.75451,-14.03447 -13.568708,77.74927 23.086098,-83.43193 29.452469,-21.09476 22.12151,37.79838 -10.35339,-40.98414 78.96861,-42.44781 -50.9309,72.58319 63.59932,-70.86118 20.44952,-15.41208 c 10.29815,-7.77801 8.04059,-0.018 9.38877,38.83159 l 0.96461,27.89674 -26.9445,29.79097 29.51676,-18.77004 -3.08671,40.72581 -48.93739,24.19439 -44.43593,-10.76262 41.47782,18.68393 -8.81001,41.0702 18.19878,-41.93121 42.31381,-20.92256 0.38583,11.36536 0.38584,71.80827 5.78761,-61.99277 63.21346,44.68646 -61.67011,-56.39621 0.64308,-48.3027 29.9669,26.77744 -29.06662,-41.67293 3.72979,-80.67669 c 0.19878,-4.27074 3.51119,6.0671 9.32447,18.68392 l 13.11856,28.49947 16.39821,54.84638 -3.85841,-34.26823 60.06245,77.83537 -55.43236,-85.49837 54.53206,32.37399 -65.85003,-50.36911 c -40.82064,-73.47973 -0.13506,-28.82792 63.85652,8.35181 l 17.87726,10.41823 78.64708,88.9424 -57.6831,-76.37166 80.57627,35.73196 -150.86347,-90.49224 49.13031,-9.0406 63.85653,30.82418 -55.56097,-36.42075 92.15147,-12.65685 -85.97804,2.84133 -61.86301,15.41209 -16.33391,-4.04675 c -14.69863,-3.59471 -30.26675,-19.95945 -35.62589,-36.42075 -6.51085,-19.99886 -8.87036,-67.83762 0,-72.92761 10.68023,-6.12853 58.0055,44.42108 58.64769,39.26208 0.75428,-6.05952 -42.05332,-45.4376 -54.46776,-72.92759 -5.73968,-12.70972 -5.64121,-51.984342 0,-47.700009 l 14.79053,11.279269 20.70675,54.84636 -7.45958,-50.28301 50.35214,37.97056 36.6548,51.31624 -14.98344,-45.71967 61.99162,21.69745 71.50903,24.62494 -57.42586,-32.97672 41.47781,-32.20181 -51.83118,29.27437 -77.03941,-28.67166 28.16633,-22.73067 -40.06306,18.25342 -16.26959,-11.62364 C 332.35634,119.30701 312.1619,64.303943 294.4654,21.303581 z"
       id="path1723"
       inkscape:connector-curvature="0"
       sodipodi:nodetypes="ccccccccccccccccccssscccccscscccccccccccccccccccccccccccccccccccccccccccccccccccccccccsssscccccccccccccccccc" />
  </g>
  <g
     inkscape:groupmode="layer"
     id="layer5"
     inkscape:label="Bgreen">
    <path
       inkscape:connector-curvature="0"
       d="m 146.78687,296.05326 c 29.3773,0 174.07559,9.16332 176.92032,40.40063 4.56799,50.11103 -98.85438,63.29525 -162.58726,63.86966 -22.92196,0 -79.488331,-7.19387 -79.488331,-33.15204 0,-12.66453 15.728073,-25.90346 25.055521,-34.35559 l 40.09975,-36.76267 z"
       id="path5043"
       style="display:inline;fill:#55a61d;fill-opacity:1;fill-rule:nonzero;stroke:none" />
  </g>
  <g
     inkscape:groupmode="layer"
     id="layer6"
     inkscape:label="Bwhite"
     style="display:inline">
    <path
       style="fill:url(#radialGradient3863);fill-opacity:1;stroke:none;display:inline"
       d="M 279.84375,41.1875 C 230.2251,44.52461 196.80546,53.74638 160.5625,64.25 137.99614,71.74477 98.601893,84.04599 74.96875,97.96875 55.82153,109.2109 33.02951,127.87195 38.0625,148.03125 42.95871,167.5067 100.57744,143.20552 125.25,136.3125 201.62006,114.92232 308.53338,99.57463 325,98.34375 c 83.09894,-4.81416 103.13257,16.29622 103.84375,29.5625 -1.69591,19.77635 -36.49893,57.25528 -198.375,75.9375 59.43843,-58.4811 64.46312,-66.3285 69.46875,-76.53125 -71.63795,0 -104.69489,39.78768 -151.25,77.78125 -7.05712,1.77795 -59.12323,2.07459 -86.96875,23.65625 -9.737751,7.52212 -23.651319,14.60091 -15.28125,27.8125 5.990341,9.5189 31.59075,5.04669 40.34375,5.59375 -19.8584,22.0193 -42.90629,48.80011 -54.09375,62.09375 l 0,107.03125 c 25.461921,13.40345 82.54767,20.30325 124.09375,21.75 123.39016,4.40386 248.06325,-33.928 245.875,-118.09375 C 401.15182,277.0582 267.14158,253.91868 185,251.8125 l 5.90625,-6.15625 c 138.02413,3.30974 251.9913,-15.74047 288.5625,-100.125 l 0,-73.53125 C 465.84687,57.50281 439.24702,45.89226 391.1875,41.1875 l -111.34375,0 z M 32.6875,431.28125 c -0.05237,-0.0276 -0.10415,-0.0661 -0.15625,-0.0937 l 0.15625,39.625 0,-39.53125 z M 146.78125,296.0625 c 29.3773,0 174.09277,9.16894 176.9375,40.40625 4.56799,50.11103 -98.86087,63.26934 -162.59375,63.84375 -22.92196,0 -79.5,-7.19808 -79.5,-33.15625 0,-12.66453 15.735052,-25.89162 25.0625,-34.34375 l 40.09375,-36.75 z"
       id="rect3013"
       inkscape:connector-curvature="0" />
  </g>
</svg>
