<?xml version="1.0" encoding="UTF-8" standalone="no"?>
<!-- Created with Inkscape (http://www.inkscape.org/) -->

<svg
   xmlns:dc="http://purl.org/dc/elements/1.1/"
   xmlns:cc="http://creativecommons.org/ns#"
   xmlns:rdf="http://www.w3.org/1999/02/22-rdf-syntax-ns#"
   xmlns:svg="http://www.w3.org/2000/svg"
   xmlns="http://www.w3.org/2000/svg"
   xmlns:sodipodi="http://sodipodi.sourceforge.net/DTD/sodipodi-0.dtd"
   xmlns:inkscape="http://www.inkscape.org/namespaces/inkscape"
   width="744.09448819"
   height="1052.3622047"
   id="svg2"
   version="1.1"
   inkscape:version="0.48.1 "
   sodipodi:docname="New document 1">
  <defs
     id="defs4" />
  <sodipodi:namedview
     id="base"
     pagecolor="#ffffff"
     bordercolor="#666666"
     borderopacity="1.0"
     inkscape:pageopacity="0.0"
     inkscape:pageshadow="2"
     inkscape:zoom="1.979899"
     inkscape:cx="111.89995"
     inkscape:cy="735.49541"
     inkscape:document-units="px"
     inkscape:current-layer="layer1"
     showgrid="false"
     inkscape:window-width="708"
     inkscape:window-height="425"
     inkscape:window-x="1625"
     inkscape:window-y="25"
     inkscape:window-maximized="0" />
  <metadata
     id="metadata7">
    <rdf:RDF>
      <cc:Work
         rdf:about="">
        <dc:format>image/svg+xml</dc:format>
        <dc:type
           rdf:resource="http://purl.org/dc/dcmitype/StillImage" />
        <dc:title></dc:title>
      </cc:Work>
    </rdf:RDF>
  </metadata>
  <g
     inkscape:label="Layer 1"
     inkscape:groupmode="layer"
     id="layer1">
    <g
       style="font-size:40px;font-style:normal;font-weight:normal;line-height:125%;letter-spacing:0px;word-spacing:0px;fill:#000000;fill-opacity:1;stroke:none;font-family:Sans"
       id="text2985"
       transform="translate(0,-2.8571429)">
      <path
         d="m 104.39125,297.50811 c 0,0 -4.10867,-0.15717 -7.924105,-0.0412 -3.81543,0.11602 -12.282869,-0.41528 -13.826073,-8.50214 -2.45359,-7.6991 1.015492,-18.16434 9.740945,-19.7782 5.001265,-1.70912 7.054926,-1.27591 12.079663,-1.23034 l -0.11724,3.60901 c 0,0 -8.23073,-0.94583 -11.956677,1.07763 -7.461081,2.40105 -7.943328,11.02368 -5.592444,17.56189 2.350884,6.53822 17.351651,4.6511 17.351651,4.6511 z"
         id="path2994"
         inkscape:connector-curvature="0"
         sodipodi:nodetypes="czccccczcc" />
      <path
         d="m 119.21875,294.93195 0.50781,3.10546 c -0.98959,0.20834 -1.87501,0.3125 -2.65625,0.3125 -1.27605,0 -2.26563,-0.20182 -2.96875,-0.60546 -0.70313,-0.40365 -1.19792,-0.93425 -1.48437,-1.5918 -0.28646,-0.65755 -0.42969,-2.04101 -0.42969,-4.15039 l 0,-11.9336 -2.57812,0 0,-2.73437 2.57812,0 0,-5.13672 3.49609,-2.10937 0,7.24609 3.53516,0 0,2.73437 -3.53516,0 0,12.12891 c 0,1.00261 0.0619,1.64714 0.18555,1.93359 0.12369,0.28647 0.32551,0.51433 0.60547,0.6836 0.27994,0.16927 0.68033,0.25391 1.20117,0.2539 0.39062,10e-6 0.90494,-0.0456 1.54297,-0.13671 z"
         id="path2996"
         inkscape:connector-curvature="0" />
      <path
         d="m 122.59766,298.07648 0,-20.74219 3.16406,0 0,3.14453 c 0.80728,-1.47133 1.55273,-2.44139 2.23633,-2.91016 0.68358,-0.46872 1.43553,-0.7031 2.25586,-0.70312 1.18488,2e-5 2.38931,0.37762 3.61328,1.13281 l -1.21094,3.26172 c -0.85939,-0.50779 -1.71876,-0.7617 -2.57813,-0.76172 -0.76823,2e-5 -1.45834,0.23114 -2.07031,0.69336 -0.61198,0.46226 -1.04818,1.10353 -1.30859,1.92383 -0.39063,1.25001 -0.58594,2.6172 -0.58594,4.10156 l 0,10.85938 z"
         id="path2998"
         inkscape:connector-curvature="0" />
      <path
         d="m 135.91797,298.07648 0,-28.63282 3.51562,0 0,28.63282 z"
         id="path3000"
         inkscape:connector-curvature="0" />
      <path
         d="m 80.800781,348.07648 0,-3.51563 14.667969,-18.33984 c 1.04165,-1.30206 2.031233,-2.43487 2.96875,-3.39844 l -15.976563,0 0,-3.37891 20.507813,0 0,3.37891 -16.074219,19.86328 -1.738281,2.01172 18.28125,0 0,3.37891 z"
         id="path3002"
         inkscape:connector-curvature="0" />
    </g>
    <path
       style="fill:none;stroke:#000000;stroke-width:3.0999999;stroke-linecap:butt;stroke-linejoin:miter;stroke-miterlimit:4;stroke-opacity:1;stroke-dasharray:none"
       d="m 82.832509,370.92764 19.697971,0 c 0,0 -8.3e-4,4.75208 -8.3e-4,18.3924 0,13.64032 -19.655081,13.54961 -19.655081,-0.14908 0,-13.69869 -0.04206,-18.24332 -0.04206,-18.24332 z"
       id="path2991"
       inkscape:connector-curvature="0"
       sodipodi:nodetypes="cczzc" />
  </g>
</svg>
