<?xml version="1.0" encoding="UTF-8" standalone="no"?>
<!-- Created with Inkscape (http://www.inkscape.org/) -->

<svg
   xmlns:dc="http://purl.org/dc/elements/1.1/"
   xmlns:cc="http://creativecommons.org/ns#"
   xmlns:rdf="http://www.w3.org/1999/02/22-rdf-syntax-ns#"
   xmlns:svg="http://www.w3.org/2000/svg"
   xmlns="http://www.w3.org/2000/svg"
   xmlns:xlink="http://www.w3.org/1999/xlink"
   xmlns:sodipodi="http://sodipodi.sourceforge.net/DTD/sodipodi-0.dtd"
   xmlns:inkscape="http://www.inkscape.org/namespaces/inkscape"
   height="512"
   id="svg1092"
   inkscape:version="0.48.1 "
   sodipodi:docname="cvsrootadmin.svg"
   sodipodi:version="0.32"
   width="512"
   inkscape:output_extension="org.inkscape.output.svg.inkscape"
   version="1.0"
   inkscape:export-filename="C:\Users\Stuart.Bentley\Pictures\cvsrootadmin.png"
   inkscape:export-xdpi="90"
   inkscape:export-ydpi="90">
  <metadata
     id="metadata3">
    <rdf:RDF>
      <cc:Work
         rdf:about="">
        <dc:title></dc:title>
        <dc:description />
        <dc:subject>
          <rdf:Bag>
            <rdf:li>genealogy</rdf:li>
            <rdf:li>tree</rdf:li>
            <rdf:li>plant</rdf:li>
          </rdf:Bag>
        </dc:subject>
        <dc:publisher>
          <cc:Agent
             rdf:about="http://www.openclipart.org">
            <dc:title>Nathan Eady</dc:title>
          </cc:Agent>
        </dc:publisher>
        <dc:creator>
          <cc:Agent>
            <dc:title>Nathan Eady</dc:title>
          </cc:Agent>
        </dc:creator>
        <dc:rights>
          <cc:Agent>
            <dc:title>Nathan Eady</dc:title>
          </cc:Agent>
        </dc:rights>
        <dc:date />
        <dc:format>image/svg+xml</dc:format>
        <dc:type
           rdf:resource="http://purl.org/dc/dcmitype/StillImage" />
        <cc:license
           rdf:resource="http://web.resource.org/cc/PublicDomain" />
        <dc:language>en</dc:language>
      </cc:Work>
      <cc:License
         rdf:about="http://web.resource.org/cc/PublicDomain">
        <cc:permits
           rdf:resource="http://web.resource.org/cc/Reproduction" />
        <cc:permits
           rdf:resource="http://web.resource.org/cc/Distribution" />
        <cc:permits
           rdf:resource="http://web.resource.org/cc/DerivativeWorks" />
      </cc:License>
    </rdf:RDF>
  </metadata>
  <defs
     id="defs1095">
    <linearGradient
       id="linearGradient2362">
      <stop
         id="stop2363"
         offset="0.0000000"
         style="stop-color:#00b207;stop-opacity:1.0000000;" />
      <stop
         id="stop2365"
         offset="0.50000000"
         style="stop-color:#83d400;stop-opacity:1.0000000;" />
      <stop
         id="stop2364"
         offset="1.0000000"
         style="stop-color:#00b207;stop-opacity:1.0000000;" />
    </linearGradient>
    <linearGradient
       gradientTransform="matrix(0.961323,0,0,1.040233,-9.798618,36.18994)"
       gradientUnits="userSpaceOnUse"
       id="linearGradient2367"
       inkscape:collect="always"
       x1="104.28708"
       x2="138.49277"
       xlink:href="#linearGradient2362"
       y1="154.81216"
       y2="154.81216" />
    <pattern
       height="35.269390"
       id="pattern2368"
       patternTransform="translate(93.85020,187.0638)"
       patternUnits="userSpaceOnUse"
       width="35.989169">
      <path
         d="M 126.06051,222.06325 L 129.83937,222.19821 L 95.289771,222.15322 C 94.360051,210.36677 94.060141,203.70877 93.850201,187.06378 C 95.559691,204.21862 95.469711,208.50733 96.009551,219.63398 C 96.099521,213.06595 96.549391,207.12774 97.629061,200.73966 C 97.689041,207.93750 97.389131,214.50552 96.729331,221.25349 C 97.089221,221.49342 97.449121,221.73335 97.809011,221.97328 L 100.86809,221.97328 C 99.728431,219.69396 99.218591,217.32468 99.068631,215.67517 C 99.968361,217.17472 100.68814,218.85421 101.22798,221.25349 C 100.44822,216.48493 99.938371,211.98627 99.968361,207.21771 C 100.92807,212.79603 101.52789,215.85512 101.76782,220.17382 C 101.94777,217.23470 101.85779,214.47554 102.30766,211.35647 C 102.69754,215.07536 102.72754,218.61429 102.30766,221.88331 L 107.88598,221.97328 C 107.10622,216.87481 106.59637,212.76605 106.62636,206.67788 C 107.82600,212.49613 107.94596,216.15503 108.60576,220.89360 C 108.36583,215.07535 107.85599,212.94599 109.59546,204.06866 C 109.02563,213.42585 108.72572,215.31528 110.22527,222.33317 L 116.16349,222.33317 C 116.37342,212.97598 116.31344,208.74726 115.44370,196.96080 C 117.75301,207.27769 117.27315,211.02657 116.79330,220.17381 C 117.33314,212.49612 117.15319,195.73117 120.12230,189.67299 C 118.29285,199.42006 117.99294,210.78664 117.42311,221.97328 L 123.72121,221.97328 C 122.88147,217.83452 122.13169,213.69577 122.28165,209.55701 C 123.21137,215.70516 123.60125,218.16442 124.89086,220.62368 C 124.44099,215.25530 125.07081,209.79694 126.42040,204.87842 C 125.82058,211.56641 125.17470,219.61376 126.06051,222.06325 z "
         id="path2369"
         sodipodi:nodetypes="cccccccccccccccccccccccccccccc"
         style="fill:url(#linearGradient2367);fill-opacity:1.0000000;fill-rule:evenodd;stroke:none;stroke-width:0.25000000pt;stroke-linecap:butt;stroke-linejoin:miter;stroke-opacity:1.0000000"
         transform="translate(-93.85020,-187.0638)" />
    </pattern>
  </defs>
  <sodipodi:namedview
     bordercolor="#666666"
     borderopacity="1.0"
     id="base"
     inkscape:current-layer="svg1092"
     inkscape:cx="-56.867343"
     inkscape:cy="66.261432"
     inkscape:pageopacity="0.0000000"
     inkscape:pageshadow="2"
     inkscape:window-height="817"
     inkscape:window-width="1023"
     inkscape:window-x="82"
     inkscape:window-y="114"
     inkscape:zoom="0.61399264"
     pagecolor="#ffffff"
     showgrid="false"
     inkscape:window-maximized="0" />
  <path
     style="fill:#7b5517;fill-opacity:1;fill-rule:evenodd;stroke:none"
     d="m 213.7605,21.303581 c -0.78331,1.756057 -1.53835,39.530866 -2.37934,41.219109 l -11.18936,22.386278 -89.70783,22.472382 88.10016,-9.298928 -12.08965,14.034498 -51.8955,25.8303 -81.605182,-11.79585 33.889619,14.8094 -46.043576,64.8341 56.204029,-60.01246 39.61295,3.70235 -30.41709,55.10468 44.37161,-60.95953 44.37162,-13.34568 -3.02241,40.72581 14.66192,-36.59296 21.47843,-35.904136 c 6.09463,-10.195058 7.49711,47.685596 0,67.761526 -7.16584,19.18885 -45.06,48.50221 -43.98577,53.29656 1.02047,4.5544 43.5901,-35.47637 50.28782,-25.2276 7.96523,12.18825 8.17972,66.10476 -6.30205,81.27942 l -12.02535,12.65683 -85.59218,-9.1267 -59.290785,-40.46751 49.709075,42.18952 c -21.14071,3.79064 -43.258583,0.40856 -67.586325,15.5843 -18.2346,11.37483 -32.294115,20.10894 -50.5450542,32.2879 17.3590552,-5.11625 49.6613452,-25.27062 69.8370562,-32.1157 19.101393,-6.48056 39.660353,-5.23505 59.483683,-7.83519 l 64.30669,6.62978 -66.62173,36.07635 -39.355687,-19.80325 30.867207,23.5917 -79.161529,54.50196 35.75451,-14.03447 -13.568708,77.74927 23.086098,-83.43193 29.452469,-21.09476 22.12151,37.79838 -10.35339,-40.98414 78.96861,-42.44781 -50.9309,72.58319 63.59932,-70.86118 20.44952,-15.41208 c 10.29815,-7.77801 8.04059,-0.018 9.38877,38.83159 l 0.96461,27.89674 -26.9445,29.79097 29.51676,-18.77004 -3.08671,40.72581 -48.93739,24.19439 -44.43593,-10.76262 41.47782,18.68393 -8.81001,41.0702 18.19878,-41.93121 42.31381,-20.92256 0.38583,11.36536 0.38584,71.80827 5.78761,-61.99277 63.21346,44.68646 -61.67011,-56.39621 0.64308,-48.3027 29.9669,26.77744 -29.06662,-41.67293 3.72979,-80.67669 c 0.19878,-4.27074 3.51119,6.0671 9.32447,18.68392 l 13.11856,28.49947 16.39821,54.84638 -3.85841,-34.26823 60.06245,77.83537 -55.43236,-85.49837 54.53206,32.37399 -65.85003,-50.36911 c -40.82064,-73.47973 -0.13506,-28.82792 63.85652,8.35181 l 17.87726,10.41823 78.64708,88.9424 -57.6831,-76.37166 80.57627,35.73196 -150.86347,-90.49224 49.13031,-9.0406 63.85653,30.82418 -55.56097,-36.42075 92.15147,-12.65685 -85.97804,2.84133 -61.86301,15.41209 -16.33391,-4.04675 c -14.69863,-3.59471 -30.26675,-19.95945 -35.62589,-36.42075 -6.51085,-19.99886 -8.87036,-67.83762 0,-72.92761 10.68023,-6.12853 58.0055,44.42108 58.64769,39.26208 0.75428,-6.05952 -42.05332,-45.4376 -54.46776,-72.92759 -5.73968,-12.70972 -5.64121,-51.984342 0,-47.700009 l 14.79053,11.279269 20.70675,54.84636 -7.45958,-50.28301 50.35214,37.97056 36.6548,51.31624 -14.98344,-45.71967 61.99162,21.69745 71.50903,24.62494 -57.42586,-32.97672 41.47781,-32.20181 -51.83118,29.27437 -77.03941,-28.67166 28.16633,-22.73067 -40.06306,18.25342 -16.26959,-11.62364 C 332.35634,119.30701 312.1619,64.303943 294.4654,21.303581 z"
     id="path1723"
     inkscape:connector-curvature="0"
     sodipodi:nodetypes="ccccccccccccccccccssscccccscscccccccccccccccccccccccccccccccccccccccccccccccccccccccccsssscccccccccccccccccc" />
  <path
     id="path3060"
     style="fill:#bb3b3b;fill-opacity:1;fill-rule:evenodd;stroke:none"
     d="m 382.03449,96.288028 62.91771,0 c 0,0 -12.58369,-14.468485 -29.62599,-28.886198 -17.56325,-14.418478 -41.41913,-22.021867 -72.0893,-22.021867 -28.83619,0 -52.4322,9.701701 -71.30598,28.574946 -19.66086,19.660793 -29.62296,45.352201 -29.62296,77.595921 0,32.77156 9.6988,58.9862 28.31226,78.38652 19.66079,19.13678 45.87496,28.83542 79.16977,28.83542 26.74169,0 49.02402,-7.60033 66.32604,-22.28234 17.56323,-15.46801 30.67095,-27.63242 30.67095,-27.63242 l -64.22851,0 c 0,0 -13.89447,0.36825 -33.55525,0.36825 -15.72849,0 -26.73788,-5.5066 -32.76773,-17.04002 -4.98262,-8.65139 -7.60431,-21.23431 -7.60431,-38.27357 0,-19.40108 3.67199,-33.81879 10.22508,-43.78095 6.55385,-9.96216 15.20524,-15.205241 27.00216,-15.205241 24.27047,1.90326 36.17606,1.361549 36.17606,1.361549"
     inkscape:connector-curvature="0"
     sodipodi:nodetypes="cccssscscccscsccc" />
  <path
     id="path3062"
     style="fill:#bb3b3b;fill-opacity:1;fill-rule:evenodd;stroke:none"
     d="m 193.54785,284.55569 -36.43958,135.01086 -35.65277,-135.01086 -66.850049,0 68.947579,202.90814 66.84698,0 70.25836,-202.90814 -67.11052,0"
     inkscape:connector-curvature="0" />
  <path
     id="path3064"
     style="fill:#bb3b3b;fill-opacity:1;fill-rule:evenodd;stroke:none"
     d="m 291.85562,295.56815 c -16.77955,11.26986 -24.90694,27.5254 -24.90694,48.49696 0,17.03925 6.02985,30.93372 17.82603,41.41912 9.17846,7.60415 22.8094,14.15801 40.11217,19.40109 l 40.36881,10.48538 c 11.79693,3.93232 17.82678,9.1754 17.82678,15.72848 0,4.71986 -2.62154,8.12816 -7.33756,10.7497 l -20.18785,3.93232 c -7.07709,0 -13.10694,-1.57431 -18.87401,-5.2431 -5.50586,-3.40829 -9.17463,-8.65137 -10.4854,-15.992 l -63.70528,0 c 0.52401,19.13679 9.1754,35.39233 25.43095,47.97602 17.03924,13.63095 38.27433,20.18404 64.22544,20.18404 28.83542,0 51.38126,-5.76632 68.16005,-17.56248 17.82679,-12.32323 26.47818,-29.62296 26.47818,-52.43235 0,-17.03924 -6.02987,-30.14618 -18.35003,-40.10834 -8.65138,-7.60416 -21.75908,-13.63401 -39.5851,-18.87709 l -40.37189,-10.4854 c -12.06045,-3.93231 -18.35001,-9.17539 -18.35001,-15.72924 0,-7.86385 7.07708,-11.79617 21.4948,-11.79617 l 16.51601,3.93232 c 5.76632,3.14477 9.17462,7.34061 10.22491,13.8937 l 62.91469,0 c -2.62078,-19.66079 -10.48539,-34.86526 -24.11634,-45.87772 -15.20524,-12.05741 -35.91633,-18.35003 -62.39374,-18.35003 -26.21464,0 -47.18618,5.24233 -62.91467,16.25479"
     inkscape:connector-curvature="0" />
  <rect
     style="fill:#bb3b3b;fill-opacity:1"
     id="rect3109"
     width="244.15054"
     height="82.919052"
     x="29.942991"
     y="111.22458" />
</svg>
