<?xml version="1.0" encoding="UTF-8" standalone="no"?>
<!-- Created with Inkscape (http://www.inkscape.org/) -->

<svg
   xmlns:dc="http://purl.org/dc/elements/1.1/"
   xmlns:cc="http://creativecommons.org/ns#"
   xmlns:rdf="http://www.w3.org/1999/02/22-rdf-syntax-ns#"
   xmlns:svg="http://www.w3.org/2000/svg"
   xmlns="http://www.w3.org/2000/svg"
   xmlns:xlink="http://www.w3.org/1999/xlink"
   xmlns:sodipodi="http://sodipodi.sourceforge.net/DTD/sodipodi-0.dtd"
   xmlns:inkscape="http://www.inkscape.org/namespaces/inkscape"
   height="512"
   id="svg1092"
   inkscape:version="0.48.1 "
   sodipodi:docname="cvsroot.svg"
   sodipodi:version="0.32"
   width="512"
   inkscape:output_extension="org.inkscape.output.svg.inkscape"
   version="1.0">
  <metadata
     id="metadata3">
    <rdf:RDF>
      <cc:Work
         rdf:about="">
        <dc:title></dc:title>
        <dc:description />
        <dc:subject>
          <rdf:Bag>
            <rdf:li>genealogy</rdf:li>
            <rdf:li>tree</rdf:li>
            <rdf:li>plant</rdf:li>
          </rdf:Bag>
        </dc:subject>
        <dc:publisher>
          <cc:Agent
             rdf:about="http://www.openclipart.org">
            <dc:title>Nathan Eady</dc:title>
          </cc:Agent>
        </dc:publisher>
        <dc:creator>
          <cc:Agent>
            <dc:title>Nathan Eady</dc:title>
          </cc:Agent>
        </dc:creator>
        <dc:rights>
          <cc:Agent>
            <dc:title>Nathan Eady</dc:title>
          </cc:Agent>
        </dc:rights>
        <dc:date />
        <dc:format>image/svg+xml</dc:format>
        <dc:type
           rdf:resource="http://purl.org/dc/dcmitype/StillImage" />
        <cc:license
           rdf:resource="http://web.resource.org/cc/PublicDomain" />
        <dc:language>en</dc:language>
      </cc:Work>
      <cc:License
         rdf:about="http://web.resource.org/cc/PublicDomain">
        <cc:permits
           rdf:resource="http://web.resource.org/cc/Reproduction" />
        <cc:permits
           rdf:resource="http://web.resource.org/cc/Distribution" />
        <cc:permits
           rdf:resource="http://web.resource.org/cc/DerivativeWorks" />
      </cc:License>
    </rdf:RDF>
  </metadata>
  <defs
     id="defs1095">
    <linearGradient
       id="linearGradient2362">
      <stop
         id="stop2363"
         offset="0.0000000"
         style="stop-color:#00b207;stop-opacity:1.0000000;" />
      <stop
         id="stop2365"
         offset="0.50000000"
         style="stop-color:#83d400;stop-opacity:1.0000000;" />
      <stop
         id="stop2364"
         offset="1.0000000"
         style="stop-color:#00b207;stop-opacity:1.0000000;" />
    </linearGradient>
    <linearGradient
       gradientTransform="matrix(0.961323,0,0,1.040233,-9.798618,36.18994)"
       gradientUnits="userSpaceOnUse"
       id="linearGradient2367"
       inkscape:collect="always"
       x1="104.28708"
       x2="138.49277"
       xlink:href="#linearGradient2362"
       y1="154.81216"
       y2="154.81216" />
    <pattern
       height="35.269390"
       id="pattern2368"
       patternTransform="translate(93.85020,187.0638)"
       patternUnits="userSpaceOnUse"
       width="35.989169">
      <path
         d="M 126.06051,222.06325 L 129.83937,222.19821 L 95.289771,222.15322 C 94.360051,210.36677 94.060141,203.70877 93.850201,187.06378 C 95.559691,204.21862 95.469711,208.50733 96.009551,219.63398 C 96.099521,213.06595 96.549391,207.12774 97.629061,200.73966 C 97.689041,207.93750 97.389131,214.50552 96.729331,221.25349 C 97.089221,221.49342 97.449121,221.73335 97.809011,221.97328 L 100.86809,221.97328 C 99.728431,219.69396 99.218591,217.32468 99.068631,215.67517 C 99.968361,217.17472 100.68814,218.85421 101.22798,221.25349 C 100.44822,216.48493 99.938371,211.98627 99.968361,207.21771 C 100.92807,212.79603 101.52789,215.85512 101.76782,220.17382 C 101.94777,217.23470 101.85779,214.47554 102.30766,211.35647 C 102.69754,215.07536 102.72754,218.61429 102.30766,221.88331 L 107.88598,221.97328 C 107.10622,216.87481 106.59637,212.76605 106.62636,206.67788 C 107.82600,212.49613 107.94596,216.15503 108.60576,220.89360 C 108.36583,215.07535 107.85599,212.94599 109.59546,204.06866 C 109.02563,213.42585 108.72572,215.31528 110.22527,222.33317 L 116.16349,222.33317 C 116.37342,212.97598 116.31344,208.74726 115.44370,196.96080 C 117.75301,207.27769 117.27315,211.02657 116.79330,220.17381 C 117.33314,212.49612 117.15319,195.73117 120.12230,189.67299 C 118.29285,199.42006 117.99294,210.78664 117.42311,221.97328 L 123.72121,221.97328 C 122.88147,217.83452 122.13169,213.69577 122.28165,209.55701 C 123.21137,215.70516 123.60125,218.16442 124.89086,220.62368 C 124.44099,215.25530 125.07081,209.79694 126.42040,204.87842 C 125.82058,211.56641 125.17470,219.61376 126.06051,222.06325 z "
         id="path2369"
         sodipodi:nodetypes="cccccccccccccccccccccccccccccc"
         style="fill:url(#linearGradient2367);fill-opacity:1.0000000;fill-rule:evenodd;stroke:none;stroke-width:0.25000000pt;stroke-linecap:butt;stroke-linejoin:miter;stroke-opacity:1.0000000"
         transform="translate(-93.85020,-187.0638)" />
    </pattern>
  </defs>
  <sodipodi:namedview
     bordercolor="#666666"
     borderopacity="1.0"
     id="base"
     inkscape:current-layer="svg1092"
     inkscape:cx="-268.88598"
     inkscape:cy="144.59196"
     inkscape:pageopacity="0.0000000"
     inkscape:pageshadow="2"
     inkscape:window-height="817"
     inkscape:window-width="1023"
     inkscape:window-x="82"
     inkscape:window-y="114"
     inkscape:zoom="0.43415836"
     pagecolor="#ffffff"
     showgrid="false"
     inkscape:window-maximized="0" />
  <path
     id="path3044"
     style="fill:#bb3b3b;fill-opacity:1;fill-rule:evenodd;stroke:none"
     d="m 80.843737,339.55133 c -3.179176,-4.76701 -7.948624,-6.95342 -13.90846,-6.95342 l -7.549602,1.9867 -5.959837,5.56296 0,-6.35659 -14.899654,0 0,56.42096 16.489363,0 0,-18.27616 c 2.97997,3.37656 6.356766,4.96673 10.726848,4.96673 5.565227,0 9.935481,-1.59017 13.511759,-4.96673 4.369898,-3.9757 6.356595,-9.53634 6.356595,-17.28571 0,-6.15921 -1.786985,-11.52246 -4.767012,-15.09874 z m -11.921833,15.49584 c 0,6.35891 -2.183961,9.33895 -7.150455,9.33895 -4.372402,0 -6.755902,-3.37888 -6.755902,-9.73605 l 1.789351,-6.95284 c 1.190619,-1.58959 2.977649,-2.58293 4.567415,-2.58293 4.966494,0 7.549591,3.37656 7.549591,9.93287"
     inkscape:connector-curvature="0" />
  <path
     id="path3046"
     style="fill:#bb3b3b;fill-opacity:1;fill-rule:evenodd;stroke:none"
     d="m 137.86151,350.67726 c 0,-12.11927 -5.36558,-18.07935 -16.29179,-18.07935 -4.96672,0 -9.13982,2.18641 -12.51639,6.55632 l 0,-20.85967 -16.886275,0 0,57.6146 16.886275,0 0,-21.25909 c 0,-5.56297 1.9867,-8.54243 5.96008,-8.54243 4.36991,0 6.3566,2.58294 6.3566,7.54907 l 0,22.25245 16.4915,0 0,-25.2319"
     inkscape:connector-curvature="0" />
  <path
     id="path3048"
     style="fill:#bb3b3b;fill-opacity:1;fill-rule:evenodd;stroke:none"
     d="m 187.12992,337.56465 c -2.97946,-3.37714 -8.93952,-4.96674 -18.07876,-4.96674 -14.8996,0 -22.64897,4.56962 -22.64897,14.10597 l 15.89294,0 c 0.39943,-2.58293 1.98669,-3.97338 5.76268,-3.97338 3.57627,0 5.16585,1.39045 5.16585,3.77367 l -4.56962,2.98236 -9.93286,1.58726 c -10.33231,1.59017 -15.29903,5.96006 -15.29903,13.31233 0,3.97338 1.78931,7.15255 4.76933,9.53635 2.58294,1.98669 6.15747,2.98004 10.5297,2.98004 6.3566,0 11.52303,-1.59017 15.89294,-5.36384 l 0.59624,4.37049 17.2834,0 0,-0.59682 -2.58294,-5.76268 0,-19.07211 c 0,-6.3566 -0.99334,-10.72708 -2.7809,-12.9129 z m -13.90626,19.86805 c 0.79422,6.95342 -1.58958,10.13085 -6.95283,10.13085 -3.57627,0 -5.56296,-0.99334 -5.56296,-3.17743 0,-2.3838 1.38987,-3.97338 4.36991,-4.76933 l 8.14588,-2.18409"
     inkscape:connector-curvature="0" />
  <path
     id="path3050"
     style="fill:#bb3b3b;fill-opacity:1;fill-rule:evenodd;stroke:none"
     d="m 199.44659,333.79098 0,42.11818 16.29236,0 0,-14.50308 c 0,-8.34559 3.17686,-12.31898 10.13027,-12.31898 l 3.77599,0.39943 0,-16.68889 -1.98669,-0.19973 c -6.35893,0 -10.92621,3.17975 -13.31001,9.93288 l -0.39885,0 0,-8.73981 -14.50307,0"
     inkscape:connector-curvature="0" />
  <path
     id="path3052"
     style="fill:#bb3b3b;fill-opacity:1;fill-rule:evenodd;stroke:none"
     d="m 235.80209,375.90916 16.68889,0 0,-20.86199 c 0,-5.96007 1.98669,-8.93953 5.56355,-8.93953 2.38321,0 3.57628,0.59624 4.36991,1.58959 l 0.99334,6.95284 0,21.25909 16.88628,0 0,-20.86199 c 0,-5.96007 1.98902,-8.93953 5.96181,-8.93953 l 4.17078,1.58959 0.99335,6.95284 0,21.25909 16.8886,0 0,-24.83537 c 0,-12.31666 -5.16643,-18.47588 -16.09265,-18.47588 -5.96008,0 -10.72941,2.58294 -14.30568,7.94677 -2.38322,-5.36383 -6.95284,-7.94677 -13.90625,-7.94677 -2.98004,0 -5.56296,0.99336 -8.34329,2.58294 l -4.96672,4.96672 0,-6.35659 -14.90192,0 0,42.11818"
     inkscape:connector-curvature="0" />
  <path
     id="path3054"
     style="fill:#bb3b3b;fill-opacity:1;fill-rule:evenodd;stroke:none"
     d="m 357.3873,337.56465 c -2.98004,-3.37714 -8.93953,-4.96674 -17.87963,-4.96674 -15.49584,0 -23.24289,4.56962 -23.24289,14.10597 l 16.29005,0 c 0.39653,-2.58293 1.98669,-3.97338 5.56296,-3.97338 3.77367,0 5.76036,1.39045 5.76036,3.77367 0,1.58958 -1.78697,2.58293 -4.76701,2.98236 l -10.13259,1.58726 c -10.32997,1.59017 -15.2967,5.96006 -15.2967,13.31233 0,3.97338 1.58726,7.15255 4.96673,9.53635 2.58293,1.98669 5.95949,2.98004 10.32997,2.98004 6.15921,0 11.12594,-1.59017 15.49584,-5.36384 l 0.99334,4.37049 16.88629,0 0,-0.59682 c -1.39045,-1.38987 -1.98436,-3.37656 -1.98436,-5.76268 l 0,-19.07211 c 0,-6.3566 -0.99567,-10.72708 -2.98236,-12.9129 z m -13.50915,19.86805 c 0.19914,6.95342 -1.98669,10.13085 -7.35052,10.13085 -3.57627,0 -5.36326,-0.99334 -5.36326,-3.17743 0,-2.3838 1.39046,-3.97338 4.3705,-4.76933 l 8.34328,-2.18409"
     inkscape:connector-curvature="0" />
  <path
     id="path3056"
     style="fill:#bb3b3b;fill-opacity:1;fill-rule:evenodd;stroke:none"
     d="m 406.65803,336.57129 c -3.57628,-2.78031 -8.93953,-3.97338 -15.09873,-3.97338 -6.95342,0 -12.7161,1.9867 -16.88628,6.15922 -4.3705,3.97337 -6.75603,9.73373 -6.75603,16.68946 0,6.95285 2.38553,12.11696 6.75603,16.09208 4.17018,3.77367 9.93286,5.36384 16.88628,5.36384 14.10538,0 21.85243,-5.56297 23.44201,-17.28572 l -16.88571,0 c -0.3971,3.97338 -2.58351,5.96007 -6.5563,5.96007 -4.76933,0 -6.95342,-3.17742 -6.95342,-10.13027 0,-7.74936 2.18409,-11.72274 6.95342,-11.72274 1.98611,0 3.17916,0.79595 4.17252,1.78698 l 1.98668,4.17309 16.88629,0 c -0.19972,-5.56297 -2.98003,-10.13259 -7.94676,-13.11263"
     inkscape:connector-curvature="0" />
  <path
     id="path3058"
     style="fill:#bb3b3b;fill-opacity:1;fill-rule:evenodd;stroke:none"
     d="m 435.86098,333.79098 -16.88629,0 13.90626,38.54132 0,4.57021 c -0.59392,0.99275 -2.38322,1.38987 -4.96615,1.38987 l -3.37714,-0.39712 0,11.92015 7.35226,0.39653 c 6.95109,0 11.91783,-1.38988 14.50075,-3.9728 l 6.35892,-13.31001 13.50972,-39.13815 -15.89526,0 -7.15081,25.82581 -7.35226,-25.82581"
     inkscape:connector-curvature="0" />
  <path
     style="fill:#7b5517;fill-opacity:1;fill-rule:evenodd;stroke:none"
     d="m 213.7605,21.303581 c -0.78331,1.756057 -1.53835,39.530866 -2.37934,41.219109 l -11.18936,22.386278 -89.70783,22.472382 88.10016,-9.298928 -12.08965,14.034498 -51.8955,25.8303 -81.605182,-11.79585 33.889619,14.8094 -46.043576,64.8341 56.204029,-60.01246 39.61295,3.70235 -30.41709,55.10468 44.37161,-60.95953 44.37162,-13.34568 -3.02241,40.72581 14.66192,-36.59296 21.47843,-35.904136 c 6.09463,-10.195058 7.49711,47.685596 0,67.761526 -7.16584,19.18885 -45.06,48.50221 -43.98577,53.29656 1.02047,4.5544 43.5901,-35.47637 50.28782,-25.2276 7.96523,12.18825 8.17972,66.10476 -6.30205,81.27942 l -12.02535,12.65683 -85.59218,-9.1267 -59.290785,-40.46751 49.709075,42.18952 c -21.14071,3.79064 -43.258583,0.40856 -67.586325,15.5843 -18.2346,11.37483 -32.294115,20.10894 -50.5450542,32.2879 17.3590552,-5.11625 49.6613452,-25.27062 69.8370562,-32.1157 19.101393,-6.48056 39.660353,-5.23505 59.483683,-7.83519 l 64.30669,6.62978 -66.62173,36.07635 -39.355687,-19.80325 30.867207,23.5917 -79.161529,54.50196 35.75451,-14.03447 -13.568708,77.74927 23.086098,-83.43193 29.452469,-21.09476 22.12151,37.79838 -10.35339,-40.98414 78.96861,-42.44781 -50.9309,72.58319 63.59932,-70.86118 20.44952,-15.41208 c 10.29815,-7.77801 8.04059,-0.018 9.38877,38.83159 l 0.96461,27.89674 -26.9445,29.79097 29.51676,-18.77004 -3.08671,40.72581 -48.93739,24.19439 -44.43593,-10.76262 41.47782,18.68393 -8.81001,41.0702 18.19878,-41.93121 42.31381,-20.92256 0.38583,11.36536 0.38584,71.80827 5.78761,-61.99277 63.21346,44.68646 -61.67011,-56.39621 0.64308,-48.3027 29.9669,26.77744 -29.06662,-41.67293 3.72979,-80.67669 c 0.19878,-4.27074 3.51119,6.0671 9.32447,18.68392 l 13.11856,28.49947 16.39821,54.84638 -3.85841,-34.26823 60.06245,77.83537 -55.43236,-85.49837 54.53206,32.37399 -65.85003,-50.36911 c -40.82064,-73.47973 -0.13506,-28.82792 63.85652,8.35181 l 17.87726,10.41823 78.64708,88.9424 -57.6831,-76.37166 80.57627,35.73196 -150.86347,-90.49224 49.13031,-9.0406 63.85653,30.82418 -55.56097,-36.42075 92.15147,-12.65685 -85.97804,2.84133 -61.86301,15.41209 -16.33391,-4.04675 c -14.69863,-3.59471 -30.26675,-19.95945 -35.62589,-36.42075 -6.51085,-19.99886 -8.87036,-67.83762 0,-72.92761 10.68023,-6.12853 58.0055,44.42108 58.64769,39.26208 0.75428,-6.05952 -42.05332,-45.4376 -54.46776,-72.92759 -5.73968,-12.70972 -5.64121,-51.984342 0,-47.700009 l 14.79053,11.279269 20.70675,54.84636 -7.45958,-50.28301 50.35214,37.97056 36.6548,51.31624 -14.98344,-45.71967 61.99162,21.69745 71.50903,24.62494 -57.42586,-32.97672 41.47781,-32.20181 -51.83118,29.27437 -77.03941,-28.67166 28.16633,-22.73067 -40.06306,18.25342 -16.26959,-11.62364 C 332.35634,119.30701 312.1619,64.303943 294.4654,21.303581 z"
     id="path1723"
     inkscape:connector-curvature="0"
     sodipodi:nodetypes="ccccccccccccccccccssscccccscscccccccccccccccccccccccccccccccccccccccccccccccccccccccccsssscccccccccccccccccc" />
  <path
     id="path3060"
     style="fill:#bb3b3b;fill-opacity:1;fill-rule:evenodd;stroke:none"
     d="m 129.51591,211.60953 47.68113,0 c -1.98668,-19.86632 -9.53634,-34.96563 -22.45156,-45.89185 -13.31001,-10.9268 -31.38879,-16.6889 -54.63166,-16.6889 -21.853019,0 -39.734849,7.35227 -54.038033,21.65504 -14.899654,14.8996 -22.449257,34.3694 -22.449257,58.80476 0,24.83537 7.350063,44.70169 21.455972,59.4039 14.899596,14.50248 34.76556,21.85243 59.997468,21.85243 20.26574,0 37.15203,-5.75978 50.26407,-16.88629 13.31,-11.72217 20.85966,-27.21801 23.24346,-46.68722 l -48.67449,0 c -2.3838,17.48253 -10.52969,26.02553 -25.42928,26.02553 -11.919573,0 -20.262852,-4.17309 -24.832473,-12.91349 -3.77599,-6.55631 -5.762801,-16.09207 -5.762801,-29.00498 0,-14.70278 2.782762,-25.629 7.748912,-33.17866 4.966723,-7.54965 11.523029,-11.52303 20.463132,-11.52303 7.94619,0 14.30278,2.1864 19.26951,6.55631 4.56962,4.37048 7.15254,10.52968 8.1459,18.47645"
     inkscape:connector-curvature="0" />
  <path
     id="path3062"
     style="fill:#bb3b3b;fill-opacity:1;fill-rule:evenodd;stroke:none"
     d="m 284.27919,153.00159 -27.61512,102.3157 -27.01886,-102.3157 -50.66118,0 52.25076,153.77051 50.65886,0 53.24411,-153.77051 -50.85857,0"
     inkscape:connector-curvature="0" />
  <path
     id="path3064"
     style="fill:#bb3b3b;fill-opacity:1;fill-rule:evenodd;stroke:none"
     d="m 358.78007,161.3472 c -12.7161,8.54067 -18.8753,20.85966 -18.8753,36.7526 0,12.91291 4.56962,23.4426 13.50915,31.38878 6.95574,5.76268 17.28572,10.72941 30.39833,14.70279 l 30.59282,7.94617 c 8.94011,2.98004 13.50973,6.95342 13.50973,11.91956 0,3.57687 -1.98669,6.15979 -5.56065,8.14648 l -15.29902,2.98004 c -5.36325,0 -9.93287,-1.19306 -14.30335,-3.97339 -4.17252,-2.58292 -6.95284,-6.5563 -7.94618,-12.11927 l -48.27797,0 c 0.39711,14.50249 6.95342,26.82148 19.27241,36.35782 12.9129,10.32998 29.00556,15.29613 48.67217,15.29613 21.85243,0 38.93842,-4.36991 51.65394,-13.30943 13.50973,-9.33895 20.06604,-22.44926 20.06604,-39.73497 0,-12.9129 -4.56963,-22.84577 -13.90626,-30.39543 -6.5563,-5.76268 -16.48975,-10.3323 -29.9989,-14.30568 l -30.59515,-7.94618 c -9.13981,-2.98004 -13.90625,-6.95342 -13.90625,-11.92014 0,-5.95949 5.36325,-8.93953 16.28947,-8.93953 l 12.51638,2.98004 c 4.36991,2.38321 6.95283,5.56296 7.74878,10.52911 l 47.67883,0 c -1.98611,-14.8996 -7.94617,-26.42205 -18.27616,-34.76766 -11.52303,-9.1375 -27.21858,-13.90626 -47.28404,-13.90626 -19.86632,0 -35.75925,3.97281 -47.67882,12.31842"
     inkscape:connector-curvature="0" />
</svg>
