<?xml version="1.0" encoding="UTF-8" standalone="no"?>
<!-- Created with Inkscape (http://www.inkscape.org/) -->

<svg
   xmlns:dc="http://purl.org/dc/elements/1.1/"
   xmlns:cc="http://creativecommons.org/ns#"
   xmlns:rdf="http://www.w3.org/1999/02/22-rdf-syntax-ns#"
   xmlns:svg="http://www.w3.org/2000/svg"
   xmlns="http://www.w3.org/2000/svg"
   xmlns:sodipodi="http://sodipodi.sourceforge.net/DTD/sodipodi-0.dtd"
   xmlns:inkscape="http://www.inkscape.org/namespaces/inkscape"
   sodipodi:docname="msyssh.svg"
   xml:space="preserve"
   height="64"
   width="64"
   inkscape:version="0.48.1 "
   version="1.1"
   id="svg2"
   inkscape:export-filename="C:\Users\Stuart.Bentley\Documents\msyssh.png"
   inkscape:export-xdpi="720"
   inkscape:export-ydpi="720"><metadata
     id="metadata8"><rdf:RDF><cc:Work
         rdf:about=""><dc:format>image/svg+xml</dc:format><dc:type
           rdf:resource="http://purl.org/dc/dcmitype/StillImage" /><dc:title></dc:title></cc:Work></rdf:RDF></metadata><defs
     id="defs6" /><sodipodi:namedview
     pagecolor="#ffffff"
     bordercolor="#666666"
     borderopacity="1"
     objecttolerance="10"
     gridtolerance="10"
     guidetolerance="10"
     inkscape:pageopacity="0"
     inkscape:pageshadow="2"
     inkscape:window-width="1600"
     inkscape:window-height="1178"
     id="namedview4"
     showgrid="false"
     fit-margin-top="0"
     fit-margin-left="0"
     fit-margin-right="0"
     fit-margin-bottom="0"
     inkscape:zoom="4.8049536"
     inkscape:cx="4.7317418"
     inkscape:cy="34.909184"
     inkscape:window-x="-8"
     inkscape:window-y="-8"
     inkscape:window-maximized="1"
     inkscape:current-layer="layer1"
     inkscape:snap-bbox="true"
     inkscape:bbox-nodes="false"
     inkscape:object-paths="true"
     inkscape:object-nodes="true"
     inkscape:snap-nodes="false"
     inkscape:bbox-paths="true" /><g
     id="g10"
     inkscape:groupmode="layer"
     inkscape:label="Shell"
     transform="matrix(1.25,0,0,-1.25,-1.374609,65.37461)"
     style="display:inline"><path
       inkscape:connector-curvature="0"
       id="path16"
       style="fill:#ee2722;fill-opacity:1;fill-rule:nonzero;stroke:none"
       d="m 23.699684,4.9346844 -12.72,0 -1.2000004,9.3599996 -7.575,5.53032 c -0.3356256,1.64436 -0.5053128,3.320616 -0.5053128,4.99968 0,13.80648 11.1937612,25.00032 25.0003132,25.00032 13.80648,0 25.00032,-11.19384 25.00032,-25.00032 0,-1.679064 -0.16968,-3.35532 -0.5052,-4.99968 l -7.57512,-5.53032 -1.2,-9.3599996 -12.72,0 -0.79416,-0.6421872 c -0.64032,-0.4659384 -1.4136,-0.7181256 -2.20584,-0.7181256 -0.79224,0 -1.56552,0.2521872 -2.205936,0.7181256" /><path
       inkscape:connector-curvature="0"
       id="path18"
       style="fill:#fcd006;fill-opacity:1;fill-rule:nonzero;stroke:none"
       d="m 24.179684,9.3484062 -9.36,0 -0.72,7.4399998 -7.6893844,5.480616 c -0.222168,0.86532 -0.335616,1.756896 -0.335616,2.649384 0,1.492512 0.315,2.96904 0.923448,4.33224 L 20.339684,15.588406 7.3721956,31.792246 c 0.513744,2.09328 1.652808,3.98136 3.2643604,5.41128 l 11.623128,-20.17512 -10.288128,22.0932 c 1.343448,1.7868 3.217512,3.10584 5.353128,3.76584 l 7.095,-25.13904 -5.16468,26.17416 c 1.592808,0.89808 3.390936,1.37064 5.219064,1.37064 0.387216,0 0.774336,-0.0216 1.158816,-0.06384 l 1.1868,-27.24096 0.9468,27.24096 c 0.38448,0.04224 0.7716,0.06384 1.15872,0.06384 1.82832,0 3.6264,-0.47256 5.21928,-1.37064 l -5.1648,-26.17416 7.09512,25.13904 c 2.13552,-0.66 4.00968,-1.97904 5.35296,-3.76584 l -10.28808,-22.0932 11.6232,20.17512 c 1.6116,-1.42992 2.75064,-3.318 3.26424,-5.41128 l -12.96744,-16.20384 13.3416,13.66224 c 0.6084,-1.3632 0.92352,-2.839728 0.92352,-4.33224 0,-0.892488 -0.11352,-1.784064 -0.33576,-2.649384 l -7.68936,-5.480616 -0.72,-7.4399998 -9.36,0 -1.34352,-1.047192 c -0.34128,-0.248424 -0.7536,-0.382488 -1.17648,-0.382488 -0.42288,0 -0.8352,0.134064 -1.17648,0.382488" /><path
       inkscape:connector-curvature="0"
       id="path20"
       style="fill:none;stroke:none"
       d="m 24.179684,9.2546844 -9.36,0 -0.72,7.4399996 -7.6893844,5.480616 c -0.222168,0.86532 -0.335616,1.756896 -0.335616,2.649384 0,1.492512 0.315,2.96904 0.923448,4.33224 L 20.339684,15.494684 7.3721956,31.698524 c 0.513744,2.09328 1.652808,3.98136 3.2643604,5.41128 l 11.623128,-20.17512 -10.288128,22.0932 c 1.343448,1.7868 3.217512,3.10584 5.353128,3.76584 l 7.095,-25.13904 -5.16468,26.17416 c 1.592808,0.89808 3.390936,1.37064 5.219064,1.37064 0.387216,0 0.774336,-0.0216 1.158816,-0.06384 l 1.1868,-27.24096 0.9468,27.24096 c 0.38448,0.04224 0.7716,0.06384 1.15872,0.06384 1.82832,0 3.6264,-0.47256 5.21928,-1.37064 l -5.1648,-26.17416 7.09512,25.13904 c 2.13552,-0.66 4.00968,-1.97904 5.35296,-3.76584 l -10.28808,-22.0932 11.6232,20.17512 c 1.6116,-1.42992 2.75064,-3.318 3.26424,-5.41128 l -12.96744,-16.20384 13.3416,13.66224 c 0.6084,-1.3632 0.92352,-2.839728 0.92352,-4.33224 0,-0.892488 -0.11352,-1.784064 -0.33576,-2.649384 l -7.68936,-5.480616 -0.72,-7.4399996 -9.36,0 -1.34352,-1.047192 c -0.34128,-0.248424 -0.7536,-0.382488 -1.17648,-0.382488 -0.42288,0 -0.8352,0.134064 -1.17648,0.382488 l -1.34352,1.047192 z" /></g><g
     inkscape:groupmode="layer"
     id="layer1"
     inkscape:label="M"
     style="display:inline"><path
       style="fill:#0000ff;stroke:none"
       d="M 5.09375 4.46875 C 5.09375 4.46875 16.897104 12.518779 15.5 23.53125 C 13.730992 37.475194 1.25 59.21875 1.25 59.21875 C 1.25 59.21875 15.524048 46.558292 19.53125 39.25 C 23.567108 31.889445 23.78125 23.3125 23.78125 23.3125 C 23.78125 23.3125 27.361032 30.21152 32.375 42.78125 C 37.388968 30.21152 40.9375 23.3125 40.9375 23.3125 C 40.9375 23.3125 41.151641 31.889445 45.1875 39.25 C 49.194701 46.558292 63.46875 59.21875 63.46875 59.21875 C 63.46875 59.21875 50.987758 37.475193 49.21875 23.53125 C 47.821646 12.518778 59.625 4.46875 59.625 4.46875 C 59.625 4.46875 44.943621 5.1108249 40.78125 11.5625 C 36.618879 18.014175 33.415592 20.915915 32.375 30.28125 C 31.334408 20.915915 28.099871 18.014175 23.9375 11.5625 C 19.775129 5.1108245 5.09375 4.46875 5.09375 4.46875 z "
       id="path3003" /></g></svg>