<?xml version="1.0" encoding="UTF-8" standalone="no"?>
<!-- Created with Inkscape (http://www.inkscape.org/) -->

<svg
   xmlns:dc="http://purl.org/dc/elements/1.1/"
   xmlns:cc="http://creativecommons.org/ns#"
   xmlns:rdf="http://www.w3.org/1999/02/22-rdf-syntax-ns#"
   xmlns:svg="http://www.w3.org/2000/svg"
   xmlns="http://www.w3.org/2000/svg"
   xmlns:sodipodi="http://sodipodi.sourceforge.net/DTD/sodipodi-0.dtd"
   xmlns:inkscape="http://www.inkscape.org/namespaces/inkscape"
   width="990"
   height="765"
   id="svg3863"
   version="1.1"
   inkscape:version="0.48.1 "
   sodipodi:docname="nametags.svg">
  <defs
     id="defs3865" />
  <sodipodi:namedview
     id="base"
     pagecolor="#ffffff"
     bordercolor="#666666"
     borderopacity="1.0"
     inkscape:pageopacity="0.0"
     inkscape:pageshadow="2"
     inkscape:zoom="0.5"
     inkscape:cx="518.4715"
     inkscape:cy="275.29953"
     inkscape:document-units="px"
     inkscape:current-layer="layer1"
     showgrid="false"
     units="in"
     inkscape:snap-page="true"
     inkscape:snap-bbox="false"
     inkscape:bbox-paths="false"
     inkscape:object-paths="false"
     inkscape:snap-nodes="false"
     inkscape:window-width="1280"
     inkscape:window-height="738"
     inkscape:window-x="-8"
     inkscape:window-y="-8"
     inkscape:window-maximized="1" />
  <metadata
     id="metadata3868">
    <rdf:RDF>
      <cc:Work
         rdf:about="">
        <dc:format>image/svg+xml</dc:format>
        <dc:type
           rdf:resource="http://purl.org/dc/dcmitype/StillImage" />
        <dc:title></dc:title>
      </cc:Work>
    </rdf:RDF>
  </metadata>
  <g
     inkscape:label="Layer 1"
     inkscape:groupmode="layer"
     id="layer1"
     transform="translate(0,-287.35975)">
    <rect
       style="fill:none;stroke:#000000;stroke-width:0.1;stroke-miterlimit:4;stroke-dasharray:none"
       id="rect3871"
       width="810"
       height="108"
       x="76.0625"
       y="353.42224" />
    <rect
       y="461.54733"
       x="76.0625"
       height="108"
       width="810"
       id="rect4381"
       style="fill:none;stroke:#000000;stroke-width:0.1;stroke-miterlimit:4;stroke-dasharray:none" />
    <rect
       style="fill:none;stroke:#000000;stroke-width:0.1;stroke-miterlimit:4;stroke-dasharray:none"
       id="rect4383"
       width="810"
       height="108"
       x="76.0625"
       y="569.67249" />
    <path
       inkscape:connector-curvature="0"
       d="m 195.98437,461.28353 -2.57964,0 0,-108 2.57964,0 0,108 z"
       id="path5039"
       style="fill:#cacfd4;fill-opacity:1;fill-rule:evenodd;stroke:none" />
    <path
       inkscape:connector-curvature="0"
       d="m 112.73118,415.69598 c 5.79609,0 34.34479,1.80917 34.90605,7.97659 0.90125,9.8938 -19.50378,12.49686 -32.07816,12.61027 -4.52246,0 -15.682894,-1.42035 -15.682894,-6.54546 0,-2.50045 3.103114,-5.11431 4.943404,-6.78308 l 7.9116,-7.25832 z"
       id="path5043"
       style="fill:#55a61d;fill-opacity:1;fill-rule:nonzero;stroke:none" />
    <path
       inkscape:connector-curvature="0"
       d="m 160.9526,365.3759 17.41524,0 0,6.08102 c -2.68757,-2.86229 -7.93319,-5.15213 -17.41524,-6.08102"
       id="path5047"
       style="fill:#002a44;fill-opacity:1;fill-rule:nonzero;stroke:none" />
    <path
       inkscape:connector-curvature="0"
       d="m 178.36676,385.9768 0,64.22323 -88.150167,0 -0.02699,-7.82538 c 5.008165,2.65706 16.298127,4.0288 24.511947,4.31503 24.34464,0.86948 48.94293,-6.70207 48.51119,-23.31954 -0.29682,-11.42753 -26.73539,-15.99099 -42.94177,-16.40684 l 1.1657,-1.21511 c 27.23189,0.65346 49.71467,-3.11072 56.93009,-19.77139"
       id="path5051"
       style="fill:#002a44;fill-opacity:1;fill-rule:nonzero;stroke:none" />
    <path
       inkscape:connector-curvature="0"
       d="m 90.216593,421.26177 0,-55.8848 48.764847,0 c -9.78967,0.65887 -16.37908,2.47885 -23.52974,4.55267 -4.4523,1.47975 -12.22899,3.91 -16.891764,6.65886 -3.77771,2.21962 -8.273186,5.90279 -7.280187,9.88299 0.966014,3.84519 12.336921,-0.95589 17.204771,-2.31682 15.06767,-4.22323 36.15808,-7.25293 39.40692,-7.49596 16.39526,-0.95049 20.35106,3.21872 20.49137,5.83799 -0.33459,3.90458 -7.20463,11.30333 -39.14247,14.9919 11.72709,-11.54636 12.72009,-13.09632 13.70769,-15.11072 -14.13403,0 -20.65868,7.85779 -29.84391,15.35914 -1.39236,0.35103 -11.66233,0.41044 -17.156201,4.67147 -1.921236,1.48515 -4.66817,2.88388 -3.016771,5.49235 1.181884,1.87939 6.233221,0.9937 7.960172,1.10171 -3.918023,4.34743 -8.467465,9.63456 -10.674727,12.25922"
       id="path5055"
       style="fill:#002a44;fill-opacity:1;fill-rule:nonzero;stroke:none" />
    <g
       id="g4461"
       transform="translate(76,65.892003)">
      <path
         inkscape:connector-curvature="0"
         d="m 119.98437,503.65533 -2.57964,0 0,-108 2.57964,0 0,108 z"
         id="path4451"
         style="fill:#cacfd4;fill-opacity:1;fill-rule:evenodd;stroke:none" />
      <path
         inkscape:connector-curvature="0"
         d="m 36.731184,458.06778 c 5.796088,0 34.344784,1.80917 34.906045,7.97659 0.901255,9.8938 -19.50378,12.49686 -32.078159,12.61027 -4.522458,0 -15.682894,-1.42035 -15.682894,-6.54546 0,-2.50045 3.103119,-5.11431 4.943404,-6.78308 l 7.911604,-7.25832 z"
         id="path4453"
         style="fill:#55a61d;fill-opacity:1;fill-rule:nonzero;stroke:none" />
      <path
         inkscape:connector-curvature="0"
         d="m 84.952598,407.7477 17.415242,0 0,6.08102 c -2.687572,-2.86229 -7.933194,-5.15213 -17.415242,-6.08102"
         id="path4455"
         style="fill:#002a44;fill-opacity:1;fill-rule:nonzero;stroke:none" />
      <path
         inkscape:connector-curvature="0"
         d="m 102.36676,428.3486 0,64.22323 -88.150167,0 -0.02699,-7.82538 c 5.008165,2.65706 16.298122,4.0288 24.511943,4.31503 24.344644,0.86948 48.942935,-6.70207 48.511197,-23.31954 C 86.915924,454.31441 60.47735,449.75095 44.270973,449.3351 l 1.165693,-1.21511 c 27.231892,0.65346 49.71467,-3.11072 56.930094,-19.77139"
         id="path4457"
         style="fill:#002a44;fill-opacity:1;fill-rule:nonzero;stroke:none" />
      <path
         inkscape:connector-curvature="0"
         d="m 14.216593,463.63357 0,-55.8848 48.764845,0 c -9.789669,0.65887 -16.379075,2.47885 -23.529741,4.55267 -4.452301,1.47975 -12.228987,3.91 -16.891761,6.65886 -3.77771,2.21962 -8.273186,5.90279 -7.280187,9.88299 0.966014,3.84519 12.336922,-0.95589 17.204771,-2.31682 15.067667,-4.22323 36.158085,-7.25293 39.406917,-7.49596 16.395262,-0.95049 20.351068,3.21872 20.491377,5.83799 -0.334594,3.90458 -7.204634,11.30333 -39.142474,14.9919 11.727091,-11.54636 12.720089,-13.09632 13.707692,-15.11072 -14.134034,0 -20.65868,7.85779 -29.843912,15.35914 -1.392356,0.35103 -11.662331,0.41044 -17.156201,4.67147 -1.921236,1.48515 -4.66817,2.88388 -3.016771,5.49235 1.181884,1.87939 6.233221,0.9937 7.960175,1.10171 -3.918026,4.34743 -8.467468,9.63456 -10.67473,12.25922"
         id="path4459"
         style="fill:#002a44;fill-opacity:1;fill-rule:nonzero;stroke:none" />
    </g>
    <g
       transform="translate(76,174.01712)"
       id="g4468">
      <path
         style="fill:#cacfd4;fill-opacity:1;fill-rule:evenodd;stroke:none"
         id="path4470"
         d="m 119.98437,503.65533 -2.57964,0 0,-108 2.57964,0 0,108 z"
         inkscape:connector-curvature="0" />
      <path
         style="fill:#55a61d;fill-opacity:1;fill-rule:nonzero;stroke:none"
         id="path4472"
         d="m 36.731184,458.06778 c 5.796088,0 34.344784,1.80917 34.906045,7.97659 0.901255,9.8938 -19.50378,12.49686 -32.078159,12.61027 -4.522458,0 -15.682894,-1.42035 -15.682894,-6.54546 0,-2.50045 3.103119,-5.11431 4.943404,-6.78308 l 7.911604,-7.25832 z"
         inkscape:connector-curvature="0" />
      <path
         style="fill:#002a44;fill-opacity:1;fill-rule:nonzero;stroke:none"
         id="path4474"
         d="m 84.952598,407.7477 17.415242,0 0,6.08102 c -2.687572,-2.86229 -7.933194,-5.15213 -17.415242,-6.08102"
         inkscape:connector-curvature="0" />
      <path
         style="fill:#002a44;fill-opacity:1;fill-rule:nonzero;stroke:none"
         id="path4476"
         d="m 102.36676,428.3486 0,64.22323 -88.150167,0 -0.02699,-7.82538 c 5.008165,2.65706 16.298122,4.0288 24.511943,4.31503 24.344644,0.86948 48.942935,-6.70207 48.511197,-23.31954 C 86.915924,454.31441 60.47735,449.75095 44.270973,449.3351 l 1.165693,-1.21511 c 27.231892,0.65346 49.71467,-3.11072 56.930094,-19.77139"
         inkscape:connector-curvature="0" />
      <path
         style="fill:#002a44;fill-opacity:1;fill-rule:nonzero;stroke:none"
         id="path4478"
         d="m 14.216593,463.63357 0,-55.8848 48.764845,0 c -9.789669,0.65887 -16.379075,2.47885 -23.529741,4.55267 -4.452301,1.47975 -12.228987,3.91 -16.891761,6.65886 -3.77771,2.21962 -8.273186,5.90279 -7.280187,9.88299 0.966014,3.84519 12.336922,-0.95589 17.204771,-2.31682 15.067667,-4.22323 36.158085,-7.25293 39.406917,-7.49596 16.395262,-0.95049 20.351068,3.21872 20.491377,5.83799 -0.334594,3.90458 -7.204634,11.30333 -39.142474,14.9919 11.727091,-11.54636 12.720089,-13.09632 13.707692,-15.11072 -14.134034,0 -20.65868,7.85779 -29.843912,15.35914 -1.392356,0.35103 -11.662331,0.41044 -17.156201,4.67147 -1.921236,1.48515 -4.66817,2.88388 -3.016771,5.49235 1.181884,1.87939 6.233221,0.9937 7.960175,1.10171 -3.918026,4.34743 -8.467468,9.63456 -10.67473,12.25922"
         inkscape:connector-curvature="0" />
    </g>
    <text
       xml:space="preserve"
       style="font-size:61.91411209px;font-style:normal;font-variant:normal;font-weight:normal;font-stretch:normal;line-height:125%;letter-spacing:0px;word-spacing:0px;fill:#000000;fill-opacity:1;stroke:none;font-family:Futura XBlk BT;-inkscape-font-specification:Futura XBlk BT"
       x="213.9572"
       y="429.461"
       id="text4480"
       sodipodi:linespacing="125%"><tspan
         sodipodi:role="line"
         id="tspan4482"
         x="213.9572"
         y="429.461">STUART P. BENTLEY</tspan></text>
    <text
       sodipodi:linespacing="125%"
       id="text4484"
       y="645.71124"
       x="213.9572"
       style="font-size:61.91411209px;font-style:normal;font-variant:normal;font-weight:normal;font-stretch:normal;line-height:125%;letter-spacing:0px;word-spacing:0px;fill:#000000;fill-opacity:1;stroke:none;font-family:Futura XBlk BT;-inkscape-font-specification:Futura XBlk BT"
       xml:space="preserve"><tspan
         y="645.71124"
         x="213.9572"
         id="tspan4486"
         sodipodi:role="line">BRANDON BOHRER</tspan></text>
    <text
       xml:space="preserve"
       style="font-size:61.91411209px;font-style:normal;font-variant:normal;font-weight:normal;font-stretch:normal;line-height:125%;letter-spacing:0px;word-spacing:0px;fill:#000000;fill-opacity:1;stroke:none;font-family:Futura XBlk BT;-inkscape-font-specification:Futura XBlk BT"
       x="213.9572"
       y="537.58606"
       id="text4488"
       sodipodi:linespacing="125%"><tspan
         sodipodi:role="line"
         id="tspan4490"
         x="213.9572"
         y="537.58606">EVAN GOODING</tspan></text>
  </g>
</svg>
