<?xml version="1.0" encoding="UTF-8" standalone="no"?>
<!-- Created with Inkscape (http://www.inkscape.org/) -->

<svg
   xmlns:dc="http://purl.org/dc/elements/1.1/"
   xmlns:cc="http://creativecommons.org/ns#"
   xmlns:rdf="http://www.w3.org/1999/02/22-rdf-syntax-ns#"
   xmlns:svg="http://www.w3.org/2000/svg"
   xmlns="http://www.w3.org/2000/svg"
   xmlns:sodipodi="http://sodipodi.sourceforge.net/DTD/sodipodi-0.dtd"
   xmlns:inkscape="http://www.inkscape.org/namespaces/inkscape"
   width="990"
   height="765"
   id="svg3863"
   version="1.1"
   inkscape:version="0.48.1 "
   sodipodi:docname="nametags-futura.svg">
  <defs
     id="defs3865" />
  <sodipodi:namedview
     id="base"
     pagecolor="#ffffff"
     bordercolor="#666666"
     borderopacity="1.0"
     inkscape:pageopacity="0.0"
     inkscape:pageshadow="2"
     inkscape:zoom="0.5"
     inkscape:cx="518.4715"
     inkscape:cy="275.29953"
     inkscape:document-units="px"
     inkscape:current-layer="layer1"
     showgrid="false"
     units="in"
     inkscape:snap-page="true"
     inkscape:snap-bbox="false"
     inkscape:bbox-paths="false"
     inkscape:object-paths="false"
     inkscape:snap-nodes="false"
     inkscape:window-width="1280"
     inkscape:window-height="738"
     inkscape:window-x="-8"
     inkscape:window-y="-8"
     inkscape:window-maximized="1" />
  <metadata
     id="metadata3868">
    <rdf:RDF>
      <cc:Work
         rdf:about="">
        <dc:format>image/svg+xml</dc:format>
        <dc:type
           rdf:resource="http://purl.org/dc/dcmitype/StillImage" />
        <dc:title></dc:title>
      </cc:Work>
    </rdf:RDF>
  </metadata>
  <g
     inkscape:label="Layer 1"
     inkscape:groupmode="layer"
     id="layer1"
     transform="translate(0,-287.35975)">
    <path
       style="fill:none;stroke:#000000;stroke-width:0.1;stroke-miterlimit:4"
       d="m 76.0625,353.42224 810,0 0,108 -810,0 z"
       id="rect3871" />
    <path
       style="fill:none;stroke:#000000;stroke-width:0.1;stroke-miterlimit:4"
       d="m 76.0625,461.54733 810,0 0,108 -810,0 z"
       id="rect4381" />
    <path
       style="fill:none;stroke:#000000;stroke-width:0.1;stroke-miterlimit:4"
       d="m 76.0625,569.67249 810,0 0,108 -810,0 z"
       id="rect4383" />
    <path
       inkscape:connector-curvature="0"
       d="m 195.98437,461.28353 -2.57964,0 0,-108 2.57964,0 0,108 z"
       id="path5039"
       style="fill:#cacfd4;fill-opacity:1;fill-rule:evenodd;stroke:none" />
    <path
       inkscape:connector-curvature="0"
       d="m 112.73118,415.69598 c 5.79609,0 34.34479,1.80917 34.90605,7.97659 0.90125,9.8938 -19.50378,12.49686 -32.07816,12.61027 -4.52246,0 -15.682894,-1.42035 -15.682894,-6.54546 0,-2.50045 3.103114,-5.11431 4.943404,-6.78308 l 7.9116,-7.25832 z"
       id="path5043"
       style="fill:#55a61d;fill-opacity:1;fill-rule:nonzero;stroke:none" />
    <path
       inkscape:connector-curvature="0"
       d="m 160.9526,365.3759 17.41524,0 0,6.08102 c -2.68757,-2.86229 -7.93319,-5.15213 -17.41524,-6.08102"
       id="path5047"
       style="fill:#002a44;fill-opacity:1;fill-rule:nonzero;stroke:none" />
    <path
       inkscape:connector-curvature="0"
       d="m 178.36676,385.9768 0,64.22323 -88.150167,0 -0.02699,-7.82538 c 5.008165,2.65706 16.298127,4.0288 24.511947,4.31503 24.34464,0.86948 48.94293,-6.70207 48.51119,-23.31954 -0.29682,-11.42753 -26.73539,-15.99099 -42.94177,-16.40684 l 1.1657,-1.21511 c 27.23189,0.65346 49.71467,-3.11072 56.93009,-19.77139"
       id="path5051"
       style="fill:#002a44;fill-opacity:1;fill-rule:nonzero;stroke:none" />
    <path
       inkscape:connector-curvature="0"
       d="m 90.216593,421.26177 0,-55.8848 48.764847,0 c -9.78967,0.65887 -16.37908,2.47885 -23.52974,4.55267 -4.4523,1.47975 -12.22899,3.91 -16.891764,6.65886 -3.77771,2.21962 -8.273186,5.90279 -7.280187,9.88299 0.966014,3.84519 12.336921,-0.95589 17.204771,-2.31682 15.06767,-4.22323 36.15808,-7.25293 39.40692,-7.49596 16.39526,-0.95049 20.35106,3.21872 20.49137,5.83799 -0.33459,3.90458 -7.20463,11.30333 -39.14247,14.9919 11.72709,-11.54636 12.72009,-13.09632 13.70769,-15.11072 -14.13403,0 -20.65868,7.85779 -29.84391,15.35914 -1.39236,0.35103 -11.66233,0.41044 -17.156201,4.67147 -1.921236,1.48515 -4.66817,2.88388 -3.016771,5.49235 1.181884,1.87939 6.233221,0.9937 7.960172,1.10171 -3.918023,4.34743 -8.467465,9.63456 -10.674727,12.25922"
       id="path5055"
       style="fill:#002a44;fill-opacity:1;fill-rule:nonzero;stroke:none" />
    <g
       id="g4461"
       transform="translate(76,65.892003)">
      <path
         inkscape:connector-curvature="0"
         d="m 119.98437,503.65533 -2.57964,0 0,-108 2.57964,0 0,108 z"
         id="path4451"
         style="fill:#cacfd4;fill-opacity:1;fill-rule:evenodd;stroke:none" />
      <path
         inkscape:connector-curvature="0"
         d="m 36.731184,458.06778 c 5.796088,0 34.344784,1.80917 34.906045,7.97659 0.901255,9.8938 -19.50378,12.49686 -32.078159,12.61027 -4.522458,0 -15.682894,-1.42035 -15.682894,-6.54546 0,-2.50045 3.103119,-5.11431 4.943404,-6.78308 l 7.911604,-7.25832 z"
         id="path4453"
         style="fill:#55a61d;fill-opacity:1;fill-rule:nonzero;stroke:none" />
      <path
         inkscape:connector-curvature="0"
         d="m 84.952598,407.7477 17.415242,0 0,6.08102 c -2.687572,-2.86229 -7.933194,-5.15213 -17.415242,-6.08102"
         id="path4455"
         style="fill:#002a44;fill-opacity:1;fill-rule:nonzero;stroke:none" />
      <path
         inkscape:connector-curvature="0"
         d="m 102.36676,428.3486 0,64.22323 -88.150167,0 -0.02699,-7.82538 c 5.008165,2.65706 16.298122,4.0288 24.511943,4.31503 24.344644,0.86948 48.942935,-6.70207 48.511197,-23.31954 C 86.915924,454.31441 60.47735,449.75095 44.270973,449.3351 l 1.165693,-1.21511 c 27.231892,0.65346 49.71467,-3.11072 56.930094,-19.77139"
         id="path4457"
         style="fill:#002a44;fill-opacity:1;fill-rule:nonzero;stroke:none" />
      <path
         inkscape:connector-curvature="0"
         d="m 14.216593,463.63357 0,-55.8848 48.764845,0 c -9.789669,0.65887 -16.379075,2.47885 -23.529741,4.55267 -4.452301,1.47975 -12.228987,3.91 -16.891761,6.65886 -3.77771,2.21962 -8.273186,5.90279 -7.280187,9.88299 0.966014,3.84519 12.336922,-0.95589 17.204771,-2.31682 15.067667,-4.22323 36.158085,-7.25293 39.406917,-7.49596 16.395262,-0.95049 20.351068,3.21872 20.491377,5.83799 -0.334594,3.90458 -7.204634,11.30333 -39.142474,14.9919 11.727091,-11.54636 12.720089,-13.09632 13.707692,-15.11072 -14.134034,0 -20.65868,7.85779 -29.843912,15.35914 -1.392356,0.35103 -11.662331,0.41044 -17.156201,4.67147 -1.921236,1.48515 -4.66817,2.88388 -3.016771,5.49235 1.181884,1.87939 6.233221,0.9937 7.960175,1.10171 -3.918026,4.34743 -8.467468,9.63456 -10.67473,12.25922"
         id="path4459"
         style="fill:#002a44;fill-opacity:1;fill-rule:nonzero;stroke:none" />
    </g>
    <g
       transform="translate(76,174.01712)"
       id="g4468">
      <path
         style="fill:#cacfd4;fill-opacity:1;fill-rule:evenodd;stroke:none"
         id="path4470"
         d="m 119.98437,503.65533 -2.57964,0 0,-108 2.57964,0 0,108 z"
         inkscape:connector-curvature="0" />
      <path
         style="fill:#55a61d;fill-opacity:1;fill-rule:nonzero;stroke:none"
         id="path4472"
         d="m 36.731184,458.06778 c 5.796088,0 34.344784,1.80917 34.906045,7.97659 0.901255,9.8938 -19.50378,12.49686 -32.078159,12.61027 -4.522458,0 -15.682894,-1.42035 -15.682894,-6.54546 0,-2.50045 3.103119,-5.11431 4.943404,-6.78308 l 7.911604,-7.25832 z"
         inkscape:connector-curvature="0" />
      <path
         style="fill:#002a44;fill-opacity:1;fill-rule:nonzero;stroke:none"
         id="path4474"
         d="m 84.952598,407.7477 17.415242,0 0,6.08102 c -2.687572,-2.86229 -7.933194,-5.15213 -17.415242,-6.08102"
         inkscape:connector-curvature="0" />
      <path
         style="fill:#002a44;fill-opacity:1;fill-rule:nonzero;stroke:none"
         id="path4476"
         d="m 102.36676,428.3486 0,64.22323 -88.150167,0 -0.02699,-7.82538 c 5.008165,2.65706 16.298122,4.0288 24.511943,4.31503 24.344644,0.86948 48.942935,-6.70207 48.511197,-23.31954 C 86.915924,454.31441 60.47735,449.75095 44.270973,449.3351 l 1.165693,-1.21511 c 27.231892,0.65346 49.71467,-3.11072 56.930094,-19.77139"
         inkscape:connector-curvature="0" />
      <path
         style="fill:#002a44;fill-opacity:1;fill-rule:nonzero;stroke:none"
         id="path4478"
         d="m 14.216593,463.63357 0,-55.8848 48.764845,0 c -9.789669,0.65887 -16.379075,2.47885 -23.529741,4.55267 -4.452301,1.47975 -12.228987,3.91 -16.891761,6.65886 -3.77771,2.21962 -8.273186,5.90279 -7.280187,9.88299 0.966014,3.84519 12.336922,-0.95589 17.204771,-2.31682 15.067667,-4.22323 36.158085,-7.25293 39.406917,-7.49596 16.395262,-0.95049 20.351068,3.21872 20.491377,5.83799 -0.334594,3.90458 -7.204634,11.30333 -39.142474,14.9919 11.727091,-11.54636 12.720089,-13.09632 13.707692,-15.11072 -14.134034,0 -20.65868,7.85779 -29.843912,15.35914 -1.392356,0.35103 -11.662331,0.41044 -17.156201,4.67147 -1.921236,1.48515 -4.66817,2.88388 -3.016771,5.49235 1.181884,1.87939 6.233221,0.9937 7.960175,1.10171 -3.918026,4.34743 -8.467468,9.63456 -10.67473,12.25922"
         inkscape:connector-curvature="0" />
    </g>
    <g
       style="font-size:61.91411209px;font-style:normal;font-variant:normal;font-weight:normal;font-stretch:normal;line-height:125%;letter-spacing:0px;word-spacing:0px;fill:#000000;fill-opacity:1;stroke:none;font-family:Futura XBlk BT;-inkscape-font-specification:Futura XBlk BT"
       id="text4480">
      <path
         d="m 214.07813,425.68206 5.07889,-12.39491 c 2.19681,1.51159 4.22232,2.68054 6.07653,3.50685 1.79372,0.72557 3.46653,1.08835 5.01843,1.08833 0.60461,2e-5 1.09839,-0.0403 1.48134,-0.12092 0.38292,-0.0806 0.74569,-0.24184 1.08834,-0.48371 0.62476,-0.44338 0.93715,-1.0077 0.93717,-1.69296 -2e-5,-1.20924 -1.56198,-2.14642 -4.68588,-2.81153 l -2.35806,-0.51393 c -3.28516,-0.78601 -5.80949,-2.21192 -7.57299,-4.27776 -1.76351,-2.0658 -2.64526,-4.63043 -2.64525,-7.69392 -10e-6,-4.75639 1.70303,-8.62602 5.10912,-11.6089 3.40607,-2.98279 7.87025,-4.47421 13.39255,-4.47426 2.51927,5e-5 5.01841,0.33259 7.49742,0.99764 1.24953,0.34267 2.47391,0.75583 3.67312,1.23949 1.19915,0.48375 2.45376,1.0783 3.76382,1.78366 l -4.83704,11.57867 c -1.49145,-1.08831 -3.0131,-1.93983 -4.56495,-2.55456 -1.55191,-0.61468 -3.06348,-0.92203 -4.53473,-0.92207 -1.08835,4e-5 -1.93987,0.18647 -2.55456,0.55929 -0.61473,0.37288 -0.92208,0.89186 -0.92206,1.55692 -2e-5,1.22944 2.20688,2.32785 6.6207,3.29523 l 1.6325,0.36278 c 3.02312,0.66512 5.41644,2.06081 7.17998,4.18706 1.76347,2.12631 2.64522,4.69094 2.64526,7.69392 -4e-5,4.89751 -1.76858,8.89815 -5.30563,12.00191 -3.53711,3.10376 -8.13734,4.65565 -13.80068,4.65565 -2.9627,0 -5.88004,-0.41317 -8.75202,-1.23949 -2.872,-0.82633 -5.7591,-2.06582 -8.66132,-3.71848 z"
         style=""
         id="path3012" />
      <path
         d="m 261.66251,429.461 0,-29.77803 -8.85783,0 0,-14.48089 33.61742,0 0,14.48089 -8.85782,0 0,29.77803 z"
         style=""
         id="path3014" />
      <path
         d="m 291.13822,409.20589 0,-24.00381 15.90177,0 0,24.12474 c -2e-5,2.78131 0.33757,4.70605 1.01276,5.77422 0.67514,1.06819 1.80882,1.60228 3.40104,1.60227 1.55186,1e-5 2.69058,-0.54416 3.41616,-1.63251 0.68522,-1.12862 1.02784,-3.04328 1.02787,-5.74398 l 0,-24.12474 15.90177,0 0,24.00381 c -5e-5,3.12394 -0.20663,5.71377 -0.61975,7.7695 -0.4132,2.05575 -1.07326,3.75879 -1.98016,5.10912 -1.75347,2.741 -4.17702,4.85216 -7.27068,6.3335 -3.09372,1.48134 -6.58545,2.22202 -10.47521,2.22202 -3.95027,0 -7.45208,-0.7306 -10.50545,-2.19179 -3.05339,-1.46118 -5.47695,-3.58242 -7.27067,-6.36373 -0.86664,-1.31002 -1.51158,-2.99291 -1.93482,-5.04866 -0.20155,-1.0077 -0.3527,-2.14138 -0.45347,-3.40104 -0.10078,-1.25963 -0.15116,-2.73593 -0.15116,-4.42892 z"
         style=""
         id="path3016" />
      <path
         d="m 355.34992,413.37784 6.6207,0 -1.36042,-5.01843 c -0.68527,-2.57973 -1.13874,-4.5347 -1.36042,-5.86491 -0.10079,-0.6046 -0.20156,-1.27473 -0.30231,-2.01039 -0.1008,-0.73561 -0.15118,-1.35535 -0.15116,-1.85924 l -0.27208,0 c -3e-5,0.5845 -0.0303,1.10852 -0.0907,1.57204 -0.0605,0.46357 -0.19149,1.28486 -0.39301,2.46386 -0.20156,1.17906 -0.64496,3.0786 -1.33018,5.69864 z m -21.10159,16.08316 15.78084,-44.25892 17.71566,0 15.47853,44.25892 -17.11103,0 -1.42088,-5.5626 -12.0019,0 -1.36042,5.5626 z"
         style=""
         id="path3018" />
      <path
         d="m 401.30181,396.59936 0,8.64621 2.47898,0 c 1.4914,2e-5 2.65027,-0.36276 3.47662,-1.08834 0.8263,-0.72553 1.23947,-1.78363 1.23949,-3.1743 -2e-5,-1.39062 -0.40815,-2.46888 -1.22437,-3.23478 -0.81628,-0.76583 -1.98019,-1.14876 -3.49174,-1.14879 z m -15.59946,32.86164 0,-44.25892 20.01326,0 c 5.80442,5e-5 10.23836,1.27481 13.30186,3.82429 3.06342,2.54956 4.59514,6.24284 4.59518,11.07984 -4e-5,3.1441 -0.7659,5.72889 -2.29759,7.75438 -1.53177,2.02553 -3.61774,3.21967 -6.25792,3.58243 l 11.82052,18.01798 -17.83659,0 -7.73926,-14.60182 0,14.60182 z"
         style=""
         id="path3020" />
      <path
         d="m 435.79594,429.461 0,-29.77803 -8.85783,0 0,-14.48089 33.61743,0 0,14.48089 -8.85783,0 0,29.77803 z"
         style=""
         id="path3022" />
      <path
         d="m 487.03834,429.461 0,-44.25892 19.01561,0 c 6.69121,5e-5 11.58367,1.28992 14.67739,3.86963 3.09365,2.5798 4.6405,6.67112 4.64054,12.27399 -4e-5,5.17969 -1.39573,8.98382 -4.18706,11.41239 -2.79141,2.42862 -7.20017,3.64291 -13.22628,3.6429 l -4.9882,0 0,13.06001 z m 15.99246,-31.9547 0,7.37649 2.47898,0 c 1.51155,2e-5 2.67043,-0.31741 3.47663,-0.95229 0.80614,-0.63484 1.20923,-1.53674 1.20926,-2.70572 -3e-5,-1.16892 -0.41319,-2.08091 -1.2395,-2.73595 -0.82635,-0.65499 -1.97514,-0.9825 -3.44639,-0.98253 z"
         style=""
         id="path3024" />
      <path
         d="m 528.78805,423.14262 c 0,-1.99528 0.83136,-3.70335 2.4941,-5.12424 1.66272,-1.42087 3.69327,-2.13131 6.09165,-2.13132 2.39835,10e-6 4.43393,0.70541 6.10676,2.1162 1.67279,1.41081 2.50919,3.12393 2.50921,5.13936 -2e-5,1.99528 -0.83138,3.70336 -2.4941,5.12423 -1.66274,1.42088 -3.70337,2.13132 -6.12187,2.13133 -2.41853,-1e-5 -4.45412,-0.71045 -6.10677,-2.13133 -1.65266,-1.42087 -2.47898,-3.12895 -2.47898,-5.12423 z"
         style=""
         id="path3026" />
      <path
         d="m 588.4348,411.44302 0,7.07418 2.66037,0 c 1.55186,10e-6 2.76616,-0.30735 3.64289,-0.92207 0.87669,-0.61469 1.31505,-1.48636 1.31507,-2.61502 -2e-5,-1.14878 -0.4283,-2.02549 -1.28484,-2.63014 -0.85658,-0.60461 -2.08095,-0.90693 -3.67312,-0.90695 z m 0,-15.72038 0,6.19746 2.08597,0 c 1.28985,3e-5 2.27238,-0.27205 2.94757,-0.81625 0.67515,-0.54414 1.01273,-1.31 1.01276,-2.29759 -3e-5,-0.98753 -0.34265,-1.74836 -1.02788,-2.28248 -0.68527,-0.53406 -1.66275,-0.8011 -2.93245,-0.80114 z m -14.93437,33.73836 0,-44.25892 21.19229,0 c 4.55485,5e-5 8.09697,1.06319 10.62637,3.18943 2.52933,2.12632 3.79401,5.08396 3.79405,8.87294 -4e-5,2.3984 -0.59459,4.39367 -1.78366,5.98584 -1.18914,1.59221 -2.89218,2.65032 -5.10912,3.17431 3.00296,0.60465 5.24009,1.78368 6.71139,3.53708 1.47123,1.75345 2.20686,4.08127 2.2069,6.98348 -4e-5,4.11149 -1.40076,7.22533 -4.20218,9.34153 -2.80148,2.11621 -6.90289,3.17431 -12.30422,3.17431 z"
         style=""
         id="path3028" />
      <path
         d="m 616.91285,429.461 0,-44.25892 29.59664,0 0,12.00191 -13.99719,0 0,4.26264 12.69723,0 0,11.33681 -12.69723,0 0,4.65565 14.35997,0 0,12.00191 z"
         style=""
         id="path3030" />
      <path
         d="m 653.31159,429.461 0,-44.25892 15.59946,0 13.75533,23.15733 c -0.16127,-0.90692 -0.25196,-1.44101 -0.27209,-1.60227 -0.0806,-0.6046 -0.12095,-1.20923 -0.12092,-1.81389 -3e-5,-0.96738 -0.0101,-1.84409 -0.0302,-2.63014 -0.0202,-0.78599 -0.0403,-1.54178 -0.0605,-2.26736 l 0,-14.84367 15.32737,0 0,44.25892 -15.72038,0 -13.60417,-22.97594 c 0.12091,0.78604 0.2116,1.42594 0.27208,1.9197 0.0604,0.4938 0.0907,0.92208 0.0907,1.28484 l 0.12092,3.80917 0,15.96223 z"
         style=""
         id="path3032" />
      <path
         d="m 711.38631,429.461 0,-29.77803 -8.85783,0 0,-14.48089 33.61743,0 0,14.48089 -8.85783,0 0,29.77803 z"
         style=""
         id="path3034" />
      <path
         d="m 741.34574,429.461 0,-44.25892 15.932,0 0,29.89896 15.47853,0 0,14.35996 z"
         style=""
         id="path3036" />
      <path
         d="m 777.62351,429.461 0,-44.25892 29.59664,0 0,12.00191 -13.99718,0 0,4.26264 12.69723,0 0,11.33681 -12.69723,0 0,4.65565 14.35996,0 0,12.00191 z"
         style=""
         id="path3038" />
      <path
         d="m 821.21735,429.461 0,-19.55978 -14.81343,-24.69914 18.1389,0 3.71847,8.58575 c 0.32245,0.70544 0.72554,1.81392 1.20926,3.32546 l 0.0907,0.33255 c 0.1209,-0.42321 0.26702,-0.86156 0.43835,-1.31507 0.17129,-0.45344 0.40811,-1.05303 0.71044,-1.79877 l 0.21162,-0.51394 3.65801,-8.61598 18.01798,0 -15.3576,24.69914 0,19.55978 z"
         style=""
         id="path3040" />
    </g>
    <g
       style="font-size:61.91411209px;font-style:normal;font-variant:normal;font-weight:normal;font-stretch:normal;line-height:125%;letter-spacing:0px;word-spacing:0px;fill:#000000;fill-opacity:1;stroke:none;font-family:Futura XBlk BT;-inkscape-font-specification:Futura XBlk BT"
       id="text4484">
      <path
         d="m 233.03328,627.69327 0,7.07417 2.66037,0 c 1.55186,1e-5 2.76616,-0.30734 3.64289,-0.92206 0.87669,-0.6147 1.31505,-1.48637 1.31507,-2.61503 -2e-5,-1.14878 -0.4283,-2.02549 -1.28484,-2.63014 -0.85658,-0.60461 -2.08095,-0.90692 -3.67312,-0.90694 z m 0,-15.72038 0,6.19746 2.08597,0 c 1.28985,2e-5 2.27238,-0.27206 2.94757,-0.81625 0.67515,-0.54414 1.01273,-1.31001 1.01276,-2.2976 -3e-5,-0.98753 -0.34265,-1.74835 -1.02788,-2.28248 -0.68527,-0.53405 -1.66275,-0.8011 -2.93245,-0.80113 z m -14.93437,33.73835 0,-44.25891 21.19229,0 c 4.55485,4e-5 8.09697,1.06318 10.62637,3.18942 2.52933,2.12632 3.79401,5.08397 3.79405,8.87295 -4e-5,2.39839 -0.59459,4.39367 -1.78366,5.98583 -1.18914,1.59222 -2.89218,2.65032 -5.10912,3.17431 3.00296,0.60465 5.24009,1.78368 6.71139,3.53709 1.47123,1.75344 2.20686,4.08126 2.2069,6.98347 -4e-5,4.11149 -1.40076,7.22534 -4.20218,9.34154 -2.80148,2.1162 -6.90289,3.1743 -12.30422,3.1743 z"
         style=""
         id="path3043" />
      <path
         d="m 277.1108,612.8496 0,8.64621 2.47899,0 c 1.49139,3e-5 2.65027,-0.36275 3.47662,-1.08833 0.8263,-0.72553 1.23946,-1.78363 1.23949,-3.17431 -3e-5,-1.39062 -0.40815,-2.46888 -1.22438,-3.23477 -0.81627,-0.76583 -1.98018,-1.14877 -3.49173,-1.1488 z m -15.59945,32.86164 0,-44.25891 20.01325,0 c 5.80442,4e-5 10.23837,1.2748 13.30186,3.82428 3.06342,2.54956 4.59515,6.24284 4.59519,11.07985 -4e-5,3.1441 -0.76591,5.72889 -2.29759,7.75438 -1.53177,2.02553 -3.61774,3.21967 -6.25793,3.58243 l 11.82052,18.01797 -17.83658,0 -7.73927,-14.60181 0,14.60181 z"
         style=""
         id="path3045" />
      <path
         d="m 321.12787,629.62808 6.62069,0 -1.36041,-5.01842 c -0.68528,-2.57974 -1.13875,-4.5347 -1.36042,-5.86492 -0.1008,-0.6046 -0.20157,-1.27473 -0.30232,-2.01039 -0.10079,-0.7356 -0.15118,-1.35535 -0.15115,-1.85924 l -0.27209,0 c -2e-5,0.58451 -0.0302,1.10852 -0.0907,1.57204 -0.0605,0.46358 -0.19149,1.28487 -0.39301,2.46387 -0.20157,1.17905 -0.64496,3.0786 -1.33019,5.69864 z m -21.10159,16.08316 15.78084,-44.25891 17.71566,0 15.47853,44.25891 -17.11103,0 -1.42088,-5.56259 -12.00191,0 -1.36041,5.56259 z"
         style=""
         id="path3047" />
      <path
         d="m 351.48029,645.71124 0,-44.25891 15.59946,0 13.75533,23.15733 c -0.16127,-0.90693 -0.25196,-1.44102 -0.27208,-1.60227 -0.0806,-0.60461 -0.12096,-1.20924 -0.12093,-1.81389 -3e-5,-0.96739 -0.0101,-1.8441 -0.0302,-2.63014 -0.0202,-0.786 -0.0403,-1.54178 -0.0605,-2.26737 l 0,-14.84366 15.32737,0 0,44.25891 -15.72038,0 -13.60418,-22.97594 c 0.12091,0.78604 0.2116,1.42594 0.27208,1.9197 0.0605,0.4938 0.0907,0.92208 0.0907,1.28484 l 0.12092,3.80917 0,15.96223 z"
         style=""
         id="path3049" />
      <path
         d="m 419.6221,632.19776 c 3.54714,2e-5 6.15712,-0.70035 7.82996,-2.10109 1.67278,-1.40071 2.50918,-3.56226 2.50921,-6.48465 -3e-5,-2.88205 -0.79612,-5.02848 -2.38829,-6.43931 -1.59222,-1.41078 -4.01073,-2.11618 -7.25556,-2.11621 l -0.69532,0 z m -15.78085,13.51348 0,-44.25891 12.87862,0 c 4.19208,4e-5 7.70901,0.22174 10.5508,0.66509 2.84173,0.44344 5.16955,1.14884 6.98347,2.1162 3.80913,1.99532 6.74159,4.66073 8.79737,7.99624 2.0557,3.33557 3.08357,7.12962 3.08361,11.38216 -4e-5,4.25258 -1.0128,8.02143 -3.03826,11.30658 -2.02555,3.28516 -4.97312,5.95561 -8.84272,8.01134 -1.85423,0.96741 -4.25763,1.67282 -7.21021,2.11621 -2.95263,0.4434 -6.78699,0.66509 -11.50308,0.66509 z"
         style=""
         id="path3051" />
      <path
         d="m 474.9155,632.01637 c 2.21695,2e-5 4.01068,-0.76081 5.38121,-2.28248 1.37046,-1.52163 2.05571,-3.5421 2.05574,-6.06141 -3e-5,-2.55958 -0.6752,-4.60524 -2.02551,-6.137 -1.35037,-1.53169 -3.15418,-2.29756 -5.41144,-2.29759 -2.23715,3e-5 -4.04096,0.77597 -5.41144,2.32783 -1.37051,1.55191 -2.05576,3.58749 -2.05574,6.10676 -2e-5,1.2899 0.16626,2.42862 0.49882,3.41616 0.33253,0.98758 0.8515,1.87437 1.55692,2.66037 1.37048,1.51159 3.17429,2.26738 5.41144,2.26736 z m 23.67127,-8.34389 c -5e-5,3.22471 -0.57445,6.24282 -1.7232,9.05433 -1.14884,2.81154 -2.82165,5.29052 -5.01843,7.43695 -2.19686,2.14644 -4.75142,3.80413 -7.66368,4.97308 -2.91234,1.16895 -6.00098,1.75343 -9.26596,1.75343 -3.28518,0 -6.36879,-0.5744 -9.25084,-1.72319 -2.88208,-1.1488 -5.45176,-2.82161 -7.70903,-5.01843 -2.17667,-2.1162 -3.83437,-4.57503 -4.97308,-7.37649 -1.13872,-2.80144 -1.70808,-5.83466 -1.70808,-9.09968 0,-3.28513 0.55928,-6.31332 1.67785,-9.08457 1.11856,-2.77118 2.77625,-5.24513 4.97308,-7.42183 2.19681,-2.17663 4.74633,-3.83936 7.64857,-4.9882 2.9022,-1.14875 6.01604,-1.72315 9.34153,-1.72319 3.30528,4e-5 6.40401,0.5694 9.29619,1.70808 2.89211,1.13876 5.45674,2.79645 7.69392,4.97308 2.13631,2.11624 3.78392,4.5801 4.94285,7.3916 1.15882,2.81156 1.73826,5.8599 1.73831,9.14503 z"
         style=""
         id="path3053" />
      <path
         d="m 505.29816,645.71124 0,-44.25891 15.59946,0 13.75533,23.15733 c -0.16127,-0.90693 -0.25196,-1.44102 -0.27208,-1.60227 -0.0806,-0.60461 -0.12096,-1.20924 -0.12093,-1.81389 -3e-5,-0.96739 -0.0101,-1.8441 -0.0302,-2.63014 -0.0202,-0.786 -0.0403,-1.54178 -0.0605,-2.26737 l 0,-14.84366 15.32737,0 0,44.25891 -15.72038,0 -13.60418,-22.97594 c 0.12091,0.78604 0.2116,1.42594 0.27209,1.9197 0.0604,0.4938 0.0907,0.92208 0.0907,1.28484 l 0.12093,3.80917 0,15.96223 z"
         style=""
         id="path3055" />
      <path
         d="m 593.87645,627.69327 0,7.07417 2.66037,0 c 1.55186,1e-5 2.76616,-0.30734 3.64289,-0.92206 0.87669,-0.6147 1.31505,-1.48637 1.31507,-2.61503 -2e-5,-1.14878 -0.4283,-2.02549 -1.28483,-2.63014 -0.85659,-0.60461 -2.08096,-0.90692 -3.67313,-0.90694 z m 0,-15.72038 0,6.19746 2.08597,0 c 1.28985,2e-5 2.27238,-0.27206 2.94757,-0.81625 0.67515,-0.54414 1.01273,-1.31001 1.01276,-2.2976 -3e-5,-0.98753 -0.34265,-1.74835 -1.02788,-2.28248 -0.68527,-0.53405 -1.66275,-0.8011 -2.93245,-0.80113 z m -14.93437,33.73835 0,-44.25891 21.19229,0 c 4.55485,4e-5 8.09697,1.06318 10.62637,3.18942 2.52933,2.12632 3.79401,5.08397 3.79405,8.87295 -4e-5,2.39839 -0.59459,4.39367 -1.78366,5.98583 -1.18914,1.59222 -2.89218,2.65032 -5.10912,3.17431 3.00296,0.60465 5.24009,1.78368 6.71139,3.53709 1.47123,1.75344 2.20686,4.08126 2.2069,6.98347 -4e-5,4.11149 -1.40076,7.22534 -4.20218,9.34154 -2.80148,2.1162 -6.90289,3.1743 -12.30422,3.1743 z"
         style=""
         id="path3057" />
      <path
         d="m 644.45376,632.01637 c 2.21694,2e-5 4.01068,-0.76081 5.3812,-2.28248 1.37047,-1.52163 2.05571,-3.5421 2.05575,-6.06141 -4e-5,-2.55958 -0.67521,-4.60524 -2.02552,-6.137 -1.35037,-1.53169 -3.15418,-2.29756 -5.41143,-2.29759 -2.23716,3e-5 -4.04097,0.77597 -5.41144,2.32783 -1.37052,1.55191 -2.05576,3.58749 -2.05574,6.10676 -2e-5,1.2899 0.16625,2.42862 0.49882,3.41616 0.33252,0.98758 0.8515,1.87437 1.55692,2.66037 1.37047,1.51159 3.17428,2.26738 5.41144,2.26736 z m 23.67126,-8.34389 c -5e-5,3.22471 -0.57445,6.24282 -1.72319,9.05433 -1.14885,2.81154 -2.82166,5.29052 -5.01843,7.43695 -2.19687,2.14644 -4.75143,3.80413 -7.66369,4.97308 -2.91233,1.16895 -6.00098,1.75343 -9.26595,1.75343 -3.28518,0 -6.36879,-0.5744 -9.25084,-1.72319 -2.88209,-1.1488 -5.45176,-2.82161 -7.70904,-5.01843 -2.17667,-2.1162 -3.83436,-4.57503 -4.97308,-7.37649 -1.13872,-2.80144 -1.70808,-5.83466 -1.70808,-9.09968 0,-3.28513 0.55928,-6.31332 1.67785,-9.08457 1.11856,-2.77118 2.77625,-5.24513 4.97308,-7.42183 2.19681,-2.17663 4.74633,-3.83936 7.64857,-4.9882 2.90221,-1.14875 6.01605,-1.72315 9.34154,-1.72319 3.30528,4e-5 6.404,0.5694 9.29618,1.70808 2.89211,1.13876 5.45675,2.79645 7.69392,4.97308 2.13631,2.11624 3.78393,4.5801 4.94285,7.3916 1.15882,2.81156 1.73826,5.8599 1.73831,9.14503 z"
         style=""
         id="path3059" />
      <path
         d="m 674.8364,645.71124 0,-44.25891 15.932,0 0,14.72274 9.70431,0 0,-14.72274 15.90177,0 0,44.25891 -15.90177,0 0,-15.59945 -9.70431,0 0,15.59945 z"
         style=""
         id="path3061" />
      <path
         d="m 740.3783,612.8496 0,8.64621 2.47898,0 c 1.4914,3e-5 2.65027,-0.36275 3.47663,-1.08833 0.8263,-0.72553 1.23946,-1.78363 1.23949,-3.17431 -3e-5,-1.39062 -0.40815,-2.46888 -1.22438,-3.23477 -0.81627,-0.76583 -1.98019,-1.14877 -3.49174,-1.1488 z m -15.59945,32.86164 0,-44.25891 20.01325,0 c 5.80442,4e-5 10.23837,1.2748 13.30186,3.82428 3.06342,2.54956 4.59515,6.24284 4.59519,11.07985 -4e-5,3.1441 -0.76591,5.72889 -2.2976,7.75438 -1.53176,2.02553 -3.61774,3.21967 -6.25792,3.58243 l 11.82052,18.01797 -17.83659,0 -7.73926,-14.60181 0,14.60181 z"
         style=""
         id="path3063" />
      <path
         d="m 769.15867,645.71124 0,-44.25891 29.59664,0 0,12.0019 -13.99719,0 0,4.26264 12.69723,0 0,11.33682 -12.69723,0 0,4.65565 14.35996,0 0,12.0019 z"
         style=""
         id="path3065" />
      <path
         d="m 821.15686,612.8496 0,8.64621 2.47899,0 c 1.49139,3e-5 2.65027,-0.36275 3.47662,-1.08833 0.8263,-0.72553 1.23946,-1.78363 1.23949,-3.17431 -3e-5,-1.39062 -0.40815,-2.46888 -1.22437,-3.23477 -0.81628,-0.76583 -1.98019,-1.14877 -3.49174,-1.1488 z m -15.59945,32.86164 0,-44.25891 20.01325,0 c 5.80442,4e-5 10.23837,1.2748 13.30186,3.82428 3.06342,2.54956 4.59515,6.24284 4.59519,11.07985 -4e-5,3.1441 -0.7659,5.72889 -2.29759,7.75438 -1.53177,2.02553 -3.61774,3.21967 -6.25792,3.58243 l 11.82051,18.01797 -17.83658,0 -7.73927,-14.60181 0,14.60181 z"
         style=""
         id="path3067" />
    </g>
    <g
       style="font-size:61.91411209px;font-style:normal;font-variant:normal;font-weight:normal;font-stretch:normal;line-height:125%;letter-spacing:0px;word-spacing:0px;fill:#000000;fill-opacity:1;stroke:none;font-family:Futura XBlk BT;-inkscape-font-specification:Futura XBlk BT"
       id="text4488">
      <path
         d="m 218.09891,537.58606 0,-44.25892 29.59664,0 0,12.00191 -13.99718,0 0,4.26264 12.69723,0 0,11.33681 -12.69723,0 0,4.65565 14.35996,0 0,12.00191 z"
         style=""
         id="path3070" />
      <path
         d="m 265.07867,537.58606 -16.89941,-44.25892 17.23195,0 4.68589,16.0227 c 0.36275,1.2899 0.65499,2.35808 0.87671,3.20454 0.16121,0.60465 0.38795,1.58717 0.68021,2.94757 0.29221,1.36044 0.4988,2.79643 0.61974,4.30799 l 0.30232,0 c 0.10075,-0.786 0.2116,-1.53171 0.33255,-2.23713 0.1209,-0.70538 0.29221,-1.53171 0.51393,-2.47899 0.36276,-1.59216 0.84646,-3.3859 1.45111,-5.3812 l 4.95797,-16.38548 16.89941,0 -16.83895,44.25892 z"
         style=""
         id="path3072" />
      <path
         d="m 313.99323,521.5029 6.6207,0 -1.36042,-5.01843 c -0.68527,-2.57973 -1.13874,-4.5347 -1.36042,-5.86491 -0.10079,-0.6046 -0.20156,-1.27473 -0.30231,-2.01039 -0.1008,-0.73561 -0.15118,-1.35535 -0.15116,-1.85924 l -0.27208,0 c -3e-5,0.58451 -0.0303,1.10852 -0.0907,1.57204 -0.0605,0.46358 -0.19149,1.28486 -0.39301,2.46386 -0.20156,1.17906 -0.64496,3.0786 -1.33018,5.69864 z m -21.10159,16.08316 15.78085,-44.25892 17.71565,0 15.47853,44.25892 -17.11103,0 -1.42088,-5.5626 -12.0019,0 -1.36042,5.5626 z"
         style=""
         id="path3074" />
      <path
         d="m 344.34566,537.58606 0,-44.25892 15.59946,0 13.75533,23.15733 c -0.16127,-0.90692 -0.25196,-1.44101 -0.27208,-1.60227 -0.0806,-0.6046 -0.12096,-1.20923 -0.12093,-1.81389 -3e-5,-0.96738 -0.0101,-1.84409 -0.0302,-2.63014 -0.0202,-0.78599 -0.0403,-1.54178 -0.0605,-2.26736 l 0,-14.84367 15.32737,0 0,44.25892 -15.72038,0 -13.60418,-22.97594 c 0.12091,0.78604 0.2116,1.42594 0.27209,1.9197 0.0604,0.4938 0.0907,0.92208 0.0907,1.28484 l 0.12093,3.80917 0,15.96223 z"
         style=""
         id="path3076" />
      <path
         d="m 446.16536,521.74475 -6.92301,0 0,-10.39963 24.45728,0 0.0907,2.02551 0.0302,1.17903 c -5e-5,2.51931 -0.2419,4.83202 -0.72555,6.93813 -0.48375,2.10614 -1.18916,3.96537 -2.11621,5.57771 -2.23717,3.78902 -5.14443,6.6862 -8.72178,8.69155 -3.57743,2.00536 -7.63349,3.00804 -12.16818,3.00804 -3.34565,0 -6.45949,-0.55929 -9.34154,-1.67785 -2.88208,-1.11856 -5.41648,-2.76618 -7.60322,-4.94285 -2.18675,-2.17666 -3.85452,-4.66572 -5.00331,-7.46718 -0.56433,-1.39064 -0.98757,-2.83671 -1.26972,-4.33822 -0.28217,-1.50148 -0.42325,-3.09871 -0.42325,-4.79169 0,-3.3456 0.56936,-6.41409 1.70808,-9.2055 1.13872,-2.79134 2.79137,-5.2552 4.95797,-7.3916 2.16658,-2.13632 4.70602,-3.77385 7.61834,-4.91262 2.91228,-1.13867 6.03116,-1.70803 9.35665,-1.70808 4.51454,5e-5 8.53028,0.98761 12.04725,2.96269 3.51689,1.97517 6.41407,4.88746 8.69156,8.7369 l -14.17858,5.26029 c -0.72559,-1.20923 -1.61238,-2.12122 -2.66037,-2.73596 -1.04805,-0.61467 -2.25731,-0.92202 -3.62778,-0.92206 -2.35808,4e-5 -4.23747,0.8969 -5.63817,2.69061 -1.40075,1.79376 -2.10111,4.2022 -2.10109,7.22533 -2e-5,3.12394 0.70538,5.54749 2.1162,7.27067 1.41078,1.72321 3.40606,2.58481 5.98584,2.5848 1.5317,10e-6 2.77623,-0.32246 3.73359,-0.96741 0.9573,-0.64493 1.52666,-1.54179 1.70808,-2.69061 z"
         style=""
         id="path3078" />
      <path
         d="m 491.72422,523.89119 c 2.21695,10e-6 4.01068,-0.76081 5.38121,-2.28248 1.37046,-1.52163 2.0557,-3.5421 2.05574,-6.06141 -4e-5,-2.55958 -0.67521,-4.60524 -2.02551,-6.137 -1.35037,-1.5317 -3.15418,-2.29756 -5.41144,-2.29759 -2.23716,3e-5 -4.04097,0.77597 -5.41144,2.32782 -1.37051,1.55191 -2.05576,3.5875 -2.05574,6.10677 -2e-5,1.28989 0.16625,2.42861 0.49882,3.41616 0.33252,0.98758 0.8515,1.87437 1.55692,2.66037 1.37047,1.51159 3.17428,2.26737 5.41144,2.26736 z m 23.67126,-8.34389 c -5e-5,3.22471 -0.57444,6.24282 -1.72319,9.05433 -1.14885,2.81154 -2.82165,5.29052 -5.01843,7.43695 -2.19686,2.14644 -4.75142,3.80413 -7.66369,4.97308 -2.91233,1.16895 -6.00098,1.75343 -9.26595,1.75343 -3.28518,0 -6.36879,-0.5744 -9.25084,-1.7232 -2.88208,-1.14879 -5.45176,-2.8216 -7.70903,-5.01843 -2.17668,-2.11619 -3.83437,-4.57502 -4.97308,-7.37648 -1.13873,-2.80144 -1.70809,-5.83466 -1.70808,-9.09968 -10e-6,-3.28513 0.55927,-6.31332 1.67784,-9.08457 1.11856,-2.77119 2.77626,-5.24513 4.97309,-7.42183 2.19681,-2.17663 4.74633,-3.83936 7.64856,-4.9882 2.90221,-1.14875 6.01605,-1.72315 9.34154,-1.7232 3.30528,5e-5 6.40401,0.56941 9.29618,1.70808 2.89211,1.13877 5.45675,2.79646 7.69392,4.97309 2.13632,2.11624 3.78393,4.5801 4.94285,7.3916 1.15883,2.81156 1.73826,5.8599 1.73831,9.14503 z"
         style=""
         id="path3080" />
      <path
         d="m 544.20611,523.89119 c 2.21694,10e-6 4.01068,-0.76081 5.3812,-2.28248 1.37046,-1.52163 2.05571,-3.5421 2.05575,-6.06141 -4e-5,-2.55958 -0.67521,-4.60524 -2.02552,-6.137 -1.35037,-1.5317 -3.15418,-2.29756 -5.41143,-2.29759 -2.23716,3e-5 -4.04097,0.77597 -5.41144,2.32782 -1.37052,1.55191 -2.05576,3.5875 -2.05574,6.10677 -2e-5,1.28989 0.16625,2.42861 0.49882,3.41616 0.33252,0.98758 0.8515,1.87437 1.55692,2.66037 1.37047,1.51159 3.17428,2.26737 5.41144,2.26736 z m 23.67126,-8.34389 c -5e-5,3.22471 -0.57445,6.24282 -1.72319,9.05433 -1.14885,2.81154 -2.82166,5.29052 -5.01843,7.43695 -2.19687,2.14644 -4.75143,3.80413 -7.66369,4.97308 -2.91233,1.16895 -6.00098,1.75343 -9.26595,1.75343 -3.28518,0 -6.36879,-0.5744 -9.25084,-1.7232 -2.88209,-1.14879 -5.45176,-2.8216 -7.70904,-5.01843 -2.17667,-2.11619 -3.83436,-4.57502 -4.97308,-7.37648 -1.13872,-2.80144 -1.70808,-5.83466 -1.70808,-9.09968 0,-3.28513 0.55928,-6.31332 1.67785,-9.08457 1.11856,-2.77119 2.77625,-5.24513 4.97308,-7.42183 2.19681,-2.17663 4.74633,-3.83936 7.64857,-4.9882 2.90221,-1.14875 6.01605,-1.72315 9.34154,-1.7232 3.30528,5e-5 6.404,0.56941 9.29618,1.70808 2.89211,1.13877 5.45675,2.79646 7.69392,4.97309 2.13631,2.11624 3.78393,4.5801 4.94285,7.3916 1.15882,2.81156 1.73826,5.8599 1.73831,9.14503 z"
         style=""
         id="path3082" />
      <path
         d="m 590.3696,524.07258 c 3.54713,10e-6 6.15712,-0.70035 7.82995,-2.10109 1.67278,-1.40071 2.50919,-3.56226 2.50922,-6.48466 -3e-5,-2.88204 -0.79613,-5.02848 -2.38829,-6.43931 -1.59222,-1.41077 -4.01074,-2.11617 -7.25556,-2.1162 l -0.69532,0 z m -15.78085,13.51348 0,-44.25892 12.87862,0 c 4.19208,5e-5 7.70901,0.22175 10.55079,0.6651 2.84174,0.44343 5.16956,1.14884 6.98348,2.1162 3.80913,1.99532 6.74158,4.66073 8.79737,7.99623 2.05569,3.33558 3.08356,7.12963 3.08361,11.38216 -5e-5,4.25259 -1.0128,8.02144 -3.03826,11.30658 -2.02556,3.28517 -4.97313,5.95561 -8.84272,8.01135 -1.85423,0.96741 -4.25763,1.67281 -7.21021,2.11621 -2.95264,0.44339 -6.78699,0.66509 -11.50309,0.66509 z"
         style=""
         id="path3084" />
      <path
         d="m 623.8661,537.58606 0,-44.25892 16.17386,0 0,44.25892 z"
         style=""
         id="path3086" />
      <path
         d="m 648.59547,537.58606 0,-44.25892 15.59945,0 13.75533,23.15733 c -0.16127,-0.90692 -0.25196,-1.44101 -0.27208,-1.60227 -0.0806,-0.6046 -0.12096,-1.20923 -0.12093,-1.81389 -3e-5,-0.96738 -0.0101,-1.84409 -0.0302,-2.63014 -0.0202,-0.78599 -0.0403,-1.54178 -0.0605,-2.26736 l 0,-14.84367 15.32737,0 0,44.25892 -15.72038,0 -13.60418,-22.97594 c 0.12091,0.78604 0.21161,1.42594 0.27209,1.9197 0.0604,0.4938 0.0907,0.92208 0.0907,1.28484 l 0.12093,3.80917 0,15.96223 z"
         style=""
         id="path3088" />
      <path
         d="m 729.13219,521.74475 -6.92302,0 0,-10.39963 24.45729,0 0.0907,2.02551 0.0302,1.17903 c -5e-5,2.51931 -0.2419,4.83202 -0.72555,6.93813 -0.48376,2.10614 -1.18916,3.96537 -2.11621,5.57771 -2.23717,3.78902 -5.14443,6.6862 -8.72179,8.69155 -3.57743,2.00536 -7.63348,3.00804 -12.16818,3.00804 -3.34564,0 -6.45948,-0.55929 -9.34153,-1.67785 -2.88208,-1.11856 -5.41649,-2.76618 -7.60322,-4.94285 -2.18675,-2.17666 -3.85452,-4.66572 -5.00331,-7.46718 -0.56433,-1.39064 -0.98757,-2.83671 -1.26973,-4.33822 -0.28216,-1.50148 -0.42324,-3.09871 -0.42324,-4.79169 0,-3.3456 0.56936,-6.41409 1.70808,-9.2055 1.13872,-2.79134 2.79137,-5.2552 4.95797,-7.3916 2.16658,-2.13632 4.70602,-3.77385 7.61834,-4.91262 2.91228,-1.13867 6.03116,-1.70803 9.35664,-1.70808 4.51454,5e-5 8.53029,0.98761 12.04726,2.96269 3.51689,1.97517 6.41407,4.88746 8.69155,8.7369 l -14.17857,5.26029 c -0.72559,-1.20923 -1.61238,-2.12122 -2.66037,-2.73596 -1.04806,-0.61467 -2.25732,-0.92202 -3.62778,-0.92206 -2.35808,4e-5 -4.23747,0.8969 -5.63818,2.69061 -1.40074,1.79376 -2.1011,4.2022 -2.10109,7.22533 -10e-6,3.12394 0.70539,5.54749 2.11621,7.27067 1.41078,1.72321 3.40606,2.58481 5.98584,2.5848 1.5317,10e-6 2.77623,-0.32246 3.73359,-0.96741 0.9573,-0.64493 1.52665,-1.54179 1.70808,-2.69061 z"
         style=""
         id="path3090" />
    </g>
  </g>
</svg>
