<?xml version="1.0" encoding="UTF-8" standalone="no"?>
<!-- Created with Inkscape (http://www.inkscape.org/) -->

<svg
   xmlns:dc="http://purl.org/dc/elements/1.1/"
   xmlns:cc="http://creativecommons.org/ns#"
   xmlns:rdf="http://www.w3.org/1999/02/22-rdf-syntax-ns#"
   xmlns:svg="http://www.w3.org/2000/svg"
   xmlns="http://www.w3.org/2000/svg"
   xmlns:sodipodi="http://sodipodi.sourceforge.net/DTD/sodipodi-0.dtd"
   xmlns:inkscape="http://www.inkscape.org/namespaces/inkscape"
   width="210mm"
   height="297mm"
   id="svg2991"
   version="1.1"
   inkscape:version="0.48.1 "
   sodipodi:docname="New document 3">
  <defs
     id="defs3">
    <inkscape:perspective
       id="perspective9"
       inkscape:persp3d-origin="62.5 : 38.333333 : 1"
       inkscape:vp_z="125 : 57.5 : 1"
       inkscape:vp_y="0 : 1000 : 0"
       inkscape:vp_x="0 : 57.5 : 1"
       sodipodi:type="inkscape:persp3d" />
  </defs>
  <sodipodi:namedview
     inkscape:document-units="mm"
     id="base"
     pagecolor="#ffffff"
     bordercolor="#666666"
     borderopacity="1.0"
     inkscape:pageopacity="0.0"
     inkscape:pageshadow="2"
     inkscape:zoom="0.98994949"
     inkscape:cx="379.79422"
     inkscape:cy="508.27042"
     inkscape:current-layer="layer1"
     showgrid="false"
     inkscape:window-width="1600"
     inkscape:window-height="1138"
     inkscape:window-x="1272"
     inkscape:window-y="-8"
     inkscape:window-maximized="1" />
  <metadata
     id="metadata4">
    <rdf:RDF>
      <cc:Work
         rdf:about="">
        <dc:format>image/svg+xml</dc:format>
        <dc:type
           rdf:resource="http://purl.org/dc/dcmitype/StillImage" />
        <dc:title></dc:title>
      </cc:Work>
    </rdf:RDF>
  </metadata>
  <g
     inkscape:label="Layer 1"
     inkscape:groupmode="layer"
     id="layer1">
    <rect
       style="fill:none;stroke:#000000;stroke-width:1.70787406;stroke-miterlimit:4;stroke-dasharray:none"
       id="rect3001"
       width="444.28571"
       height="444.28571"
       x="359.14383"
       y="-167.01042"
       rx="45.714287"
       ry="45.714287"
       transform="matrix(0.70710678,0.70710678,-0.70710678,0.70710678,0,0)" />
    <g
       transform="matrix(1.5010056,0.35042589,-0.35042589,1.5010056,334.71858,328.34898)"
       inkscape:label="Layer 1"
       id="layer1-4"
       style="fill:#000000">
      <path
         style="fill:#000000;fill-opacity:1;stroke:#000000;stroke-width:1.54136825;stroke-opacity:1"
         d="m 467.1875,396.71875 c -2.14084,0.0312 -3.31298,1.17628 -5.625,4.3125 -2.05324,2.78521 -4.31718,7.54343 -5.0625,10.59375 -3.29123,10.21705 -3.59368,5.70653 0.46875,12.28125 3.28644,5.28833 -0.22024,9.65821 -9.34375,11.5625 -4.86901,1.01629 -8.13697,2.92549 -10.90625,6.4375 -2.17397,2.75702 -4.28122,4.9386 -4.6875,4.84375 -2.14148,-0.49995 -31.12604,-12.99142 -36.1738,-16.18278 -3.19018,-2.01695 -6.60109,-3.62643 -7.59528,-3.59416 -6.19688,-1.66757 -5.21396,1.44771 -3.5728,5.26019 2.14592,5.01101 3.9885,6.76774 8.72229,8.40387 7.00707,3.75441 11.56667,7.77641 18.1989,12.73709 l 1.88944,8.40704 -5.4375,-2.21875 c -18.26282,-7.45999 -15.64187,-7.34342 -39.15625,-1.5625 -13.69675,3.36728 -22.4301,6.32286 -23.28125,7.9375 -2.22669,4.22401 -18.27882,2.48815 -25.03125,-2.71875 -2.39185,-1.84441 -4.04032,-2.29819 -5.375,-1.46875 -2.27737,1.41527 1.37101,6.34062 12.34375,16.71875 l 7.34375,6.96875 6.03125,-4.28125 c 5.6702,-4.0206 6.06447,-4.04804 6.90625,-0.9375 0.49153,1.8163 1.05075,3.56306 1.21875,3.90625 0.16799,0.34317 4.15526,-0.44845 8.875,-1.75 4.71973,-1.30156 8.79973,-2.01658 9.0625,-1.59375 0.26277,0.42283 -2.68097,5.02691 -6.53125,10.21875 -3.85028,5.19184 -7.65365,11.75731 -8.4375,14.59375 -1.3029,4.71454 -2.25078,5.35995 -11.125,7.5625 -12.58244,3.12292 -11.22297,5.26019 6.28125,9.9375 l 13.53125,3.625 0.15625,-4.34375 c 0.22312,-6.10627 20.80514,-29.68324 26.59375,-30.46875 10.17998,-1.38144 11.34886,-1.08235 10.46875,2.6875 -1.86594,7.99254 2.84622,11.35657 27.46875,19.53125 9.48662,3.14957 11.29446,4.20798 10.78125,6.40625 -0.33873,1.45092 -0.69259,4.91393 -0.78125,7.6875 L 435.25,533.25 l -18.59375,-5.46875 -18.5625,-5.46875 -1.28125,5.84375 c -1.44855,6.71256 -0.35897,10.21326 3,9.75 3.20885,-0.44256 3.73131,-3.89689 1,-6.53125 -1.62642,-1.5687 1.25942,-1.09432 10.28125,1.71875 13.81502,4.30763 16.43356,6.24925 10.9375,8.125 -2.00335,0.68373 -3.96144,2.59722 -4.375,4.25 -0.41354,1.65278 -1.98861,4.05727 -3.5,5.3125 -1.51139,1.25523 -2.6181,3.34685 -2.4375,4.65625 0.18058,1.30939 1.81422,2.49717 3.625,2.65625 2.63742,0.23171 3.48651,-0.66753 4.21875,-4.59375 0.78938,-4.23262 2.0782,-5.39938 9.46875,-8.46875 l 8.5625,-3.5625 19.5,6.3125 c 10.73768,3.46226 19.69936,6.53933 19.90625,6.84375 0.20689,0.30442 -0.81336,1.7573 -2.28125,3.21875 -3.20481,3.19074 -1.71877,6.77798 2.5625,6.1875 2.32112,-0.32013 2.87848,-1.63178 3.375,-7.59375 0.32904,-3.95087 -0.0367,-7.83555 -0.8125,-8.65625 -0.77576,-0.82068 -5.16567,-2.3779 -9.78125,-3.46875 -6.55214,-1.54858 -9.10595,-2.94303 -11.59375,-6.34375 -1.75251,-2.39559 -2.89365,-5.51906 -2.5625,-6.9375 0.73161,-3.13377 -2.00641,-3.89637 -6.625,-1.84375 -5.07933,2.25739 -5.96854,1.48717 -4.6875,-4 1.13727,-4.87133 1.30357,-4.92994 10.96875,-4.65625 11.0677,0.31342 22.1635,-2.54776 28,-7.21875 5.64051,-4.51413 9.56361,-14.4496 17.8125,-45.21875 l 5.25,-20.875 c 0.30761,-3.9881 -1.36665,-6.4322 -4.84375,-7.90625 -3.77218,-0.88066 -8.91955,-1.0827 -11.46875,-0.4375 -4.19133,1.06084 -5.0577,0.75644 -8.84375,-3.09375 -3.27554,-3.33098 -3.80724,-4.89657 -2.46875,-7.1875 6.22777,-10.6593 7.13356,-13.0129 6.5625,-17.25 -0.78915,-5.85521 -7.63823,-12.41666 -14.65625,-14.0625 -1.57851,-0.37019 -2.74564,-0.57667 -3.71875,-0.5625 z M 452.59375,535.4375 c 0.36405,0.085 0.50523,0.8307 0.3125,1.65625 -0.19273,0.82555 -1.09448,1.32911 -1.96875,1.125 -0.87428,-0.20411 -1.01546,-0.94981 -0.3125,-1.65625 0.70296,-0.70644 1.6047,-1.20999 1.96875,-1.125 z"
         id="path7593"
         inkscape:connector-curvature="0"
         sodipodi:nodetypes="ssccssssccccccsssscccssssssscccsssscccccsssscscsscccsssssssssssscccsssssssssss"
         transform="matrix(0.63178526,-0.14749706,0.14749706,0.63178526,-264.77706,-178.96299)" />
    </g>
    <path
       style="fill:none;stroke:#000000;stroke-width:10.62992096;stroke-linecap:round;stroke-linejoin:miter;stroke-miterlimit:4;stroke-opacity:1;stroke-dasharray:none"
       d="m 311.28797,466.44484 -144.14511,0"
       id="path3800"
       inkscape:connector-curvature="0" />
    <path
       style="fill:none;stroke:#000000;stroke-width:8.85826778;stroke-linecap:round;stroke-linejoin:miter;stroke-miterlimit:4;stroke-opacity:1;stroke-dasharray:none"
       d="m 320.96457,489.30198 -53.32961,0"
       id="path3802"
       inkscape:connector-curvature="0" />
    <path
       inkscape:connector-curvature="0"
       id="path3804"
       d="m 300,446.44484 -62.23943,0"
       style="fill:none;stroke:#000000;stroke-width:8.85826778;stroke-linecap:round;stroke-linejoin:miter;stroke-miterlimit:4;stroke-opacity:1;stroke-dasharray:none" />
    <path
       style="fill:none;stroke:#000000;stroke-width:3.54330707;stroke-linecap:butt;stroke-linejoin:miter;stroke-miterlimit:4;stroke-opacity:1;stroke-dasharray:none"
       d="m 497.42417,508.35615 c 0.81742,-10.07787 2.00168,-21.80927 13.59504,-19.78876 20.53628,2.44153 10.44074,15.76238 5.77741,20.41924 5.98134,-2.53106 20.87384,4.35863 14.77162,19.37245 -4.4215,10.98116 -12.99892,6.07029 -19.40207,2.23783 1.59713,9.16424 -4.71823,15.26362 -12.32068,15.74531 -3.88459,0.53602 -10.58438,-4.71883 -11.81272,-8.86666 -1.24024,-3.65776 0.70526,-7.27411 1.29147,-10.8274 l 0.004,-0.3163 -0.009,-0.31625"
       id="path3806"
       inkscape:connector-curvature="0"
       sodipodi:nodetypes="cccccccccc" />
    <path
       sodipodi:nodetypes="cccccccccc"
       inkscape:connector-curvature="0"
       id="path3939"
       d="m 525.06976,453.48092 c -4.29672,-4.56574 -9.20182,-9.98783 -3.46052,-14.48914 9.64675,-8.44639 11.58439,1.74192 11.7911,5.82612 1.31824,-3.80778 10.66875,-7.80503 15.04261,1.24724 3.21637,6.60166 -2.60277,8.51203 -7.02341,9.86897 4.87859,3.07355 5.06321,8.51848 2.12939,12.22124 -1.36572,2.01248 -6.56379,2.91483 -8.98169,1.75658 -2.19739,-0.94906 -3.05348,-3.34861 -4.44475,-5.09571 l -0.14384,-0.13332 -0.14922,-0.12731"
       style="fill:none;stroke:#000000;stroke-width:3.54330707;stroke-linecap:butt;stroke-linejoin:miter;stroke-miterlimit:4;stroke-opacity:1;stroke-dasharray:none" />
    <text
       xml:space="preserve"
       style="font-size:16.85161018px;font-style:normal;font-weight:normal;line-height:125%;letter-spacing:0px;word-spacing:0px;fill:#000000;fill-opacity:1;stroke:none;font-family:Sans"
       x="426.15533"
       y="278.86896"
       id="text3941"
       sodipodi:linespacing="125%"
       transform="matrix(0.97987915,0.19959169,-0.19959169,0.97987915,0,0)"><tspan
         sodipodi:role="line"
         id="tspan3943"
         x="426.15533"
         y="278.86896">WHOOSH!</tspan></text>
    <text
       xml:space="preserve"
       style="font-size:131.8678894px;font-style:normal;font-weight:normal;line-height:125%;letter-spacing:0px;word-spacing:0px;fill:#000000;fill-opacity:1;stroke:none;font-family:Sans"
       x="77.372742"
       y="130.71794"
       id="text3968"
       sodipodi:linespacing="125%"><tspan
         sodipodi:role="line"
         id="tspan3970"
         x="77.372742"
         y="130.71794">CAUTION</tspan></text>
    <text
       xml:space="preserve"
       style="font-size:151.50212097px;font-style:normal;font-weight:normal;text-align:center;line-height:87.00000048%;letter-spacing:0px;word-spacing:0px;text-anchor:middle;fill:#000000;fill-opacity:1;stroke:none;font-family:Sans"
       x="367.64569"
       y="881.00751"
       id="text3972"
       sodipodi:linespacing="87%"><tspan
         sodipodi:role="line"
         id="tspan3974"
         x="367.64569"
         y="881.00751">ROCKET</tspan><tspan
         sodipodi:role="line"
         x="367.64569"
         y="1012.8143"
         id="tspan3976">CHAIR</tspan></text>
    <rect
       transform="matrix(0.70710678,0.70710678,-0.70710678,0.70710678,0,0)"
       ry="28.96821"
       rx="28.96821"
       y="-141.17065"
       x="384.98358"
       height="392.6062"
       width="392.6062"
       id="rect3979"
       style="fill:none;stroke:#000000;stroke-width:7.08661413;stroke-miterlimit:4;stroke-dasharray:none" />
  </g>
</svg>
