<?xml version="1.0" encoding="UTF-8" standalone="no"?>
<!-- Created with Inkscape (http://www.inkscape.org/) -->

<svg
   xmlns:dc="http://purl.org/dc/elements/1.1/"
   xmlns:cc="http://creativecommons.org/ns#"
   xmlns:rdf="http://www.w3.org/1999/02/22-rdf-syntax-ns#"
   xmlns:svg="http://www.w3.org/2000/svg"
   xmlns="http://www.w3.org/2000/svg"
   xmlns:sodipodi="http://sodipodi.sourceforge.net/DTD/sodipodi-0.dtd"
   xmlns:inkscape="http://www.inkscape.org/namespaces/inkscape"
   width="765"
   height="990"
   id="svg2991"
   version="1.1"
   inkscape:version="0.48.1 "
   sodipodi:docname="rocketchair_fontsafe.svg">
  <defs
     id="defs3">
    <inkscape:perspective
       id="perspective9"
       inkscape:persp3d-origin="62.5 : 38.333333 : 1"
       inkscape:vp_z="125 : 57.5 : 1"
       inkscape:vp_y="0 : 1000 : 0"
       inkscape:vp_x="0 : 57.5 : 1"
       sodipodi:type="inkscape:persp3d" />
  </defs>
  <sodipodi:namedview
     inkscape:document-units="mm"
     id="base"
     pagecolor="#ffffff"
     bordercolor="#666666"
     borderopacity="1.0"
     inkscape:pageopacity="0.0"
     inkscape:pageshadow="2"
     inkscape:zoom="0.49497475"
     inkscape:cx="-291.26174"
     inkscape:cy="519.37775"
     inkscape:current-layer="layer1"
     showgrid="false"
     inkscape:window-width="1600"
     inkscape:window-height="1138"
     inkscape:window-x="1272"
     inkscape:window-y="-8"
     inkscape:window-maximized="1"
     units="mm" />
  <metadata
     id="metadata4">
    <rdf:RDF>
      <cc:Work
         rdf:about="">
        <dc:format>image/svg+xml</dc:format>
        <dc:type
           rdf:resource="http://purl.org/dc/dcmitype/StillImage" />
        <dc:title />
      </cc:Work>
    </rdf:RDF>
  </metadata>
  <g
     inkscape:label="Layer 1"
     inkscape:groupmode="layer"
     id="layer1"
     transform="translate(0,-62.362183)">
    <rect
       style="fill:none;stroke:#000000;stroke-width:1.60944104;stroke-miterlimit:4;stroke-dasharray:none"
       id="rect3001"
       width="418.67938"
       height="418.67938"
       x="405.31134"
       y="-135.62537"
       rx="43.079552"
       ry="43.079552"
       transform="matrix(0.70710678,0.70710678,-0.70710678,0.70710678,0,0)" />
    <g
       transform="matrix(1.4144955,0.33022917,-0.33022917,1.4144955,347.32277,372.09278)"
       inkscape:label="Layer 1"
       id="layer1-4"
       style="fill:#000000">
      <path
         style="fill:#000000;fill-opacity:1;stroke:#000000;stroke-width:1.54136825;stroke-opacity:1"
         d="m 467.1875,396.71875 c -2.14084,0.0312 -3.31298,1.17628 -5.625,4.3125 -2.05324,2.78521 -4.31718,7.54343 -5.0625,10.59375 -3.29123,10.21705 -3.59368,5.70653 0.46875,12.28125 3.28644,5.28833 -0.22024,9.65821 -9.34375,11.5625 -4.86901,1.01629 -8.13697,2.92549 -10.90625,6.4375 -2.17397,2.75702 -4.28122,4.9386 -4.6875,4.84375 -2.14148,-0.49995 -31.12604,-12.99142 -36.1738,-16.18278 -3.19018,-2.01695 -6.60109,-3.62643 -7.59528,-3.59416 -6.19688,-1.66757 -5.21396,1.44771 -3.5728,5.26019 2.14592,5.01101 3.9885,6.76774 8.72229,8.40387 7.00707,3.75441 11.56667,7.77641 18.1989,12.73709 l 1.88944,8.40704 -5.4375,-2.21875 c -18.26282,-7.45999 -15.64187,-7.34342 -39.15625,-1.5625 -13.69675,3.36728 -22.4301,6.32286 -23.28125,7.9375 -2.22669,4.22401 -18.27882,2.48815 -25.03125,-2.71875 -2.39185,-1.84441 -4.04032,-2.29819 -5.375,-1.46875 -2.27737,1.41527 1.37101,6.34062 12.34375,16.71875 l 7.34375,6.96875 6.03125,-4.28125 c 5.6702,-4.0206 6.06447,-4.04804 6.90625,-0.9375 0.49153,1.8163 1.05075,3.56306 1.21875,3.90625 0.16799,0.34317 4.15526,-0.44845 8.875,-1.75 4.71973,-1.30156 8.79973,-2.01658 9.0625,-1.59375 0.26277,0.42283 -2.68097,5.02691 -6.53125,10.21875 -3.85028,5.19184 -7.65365,11.75731 -8.4375,14.59375 -1.3029,4.71454 -2.25078,5.35995 -11.125,7.5625 -12.58244,3.12292 -11.22297,5.26019 6.28125,9.9375 l 13.53125,3.625 0.15625,-4.34375 c 0.22312,-6.10627 20.80514,-29.68324 26.59375,-30.46875 10.17998,-1.38144 11.34886,-1.08235 10.46875,2.6875 -1.86594,7.99254 2.84622,11.35657 27.46875,19.53125 9.48662,3.14957 11.29446,4.20798 10.78125,6.40625 -0.33873,1.45092 -0.69259,4.91393 -0.78125,7.6875 L 435.25,533.25 l -18.59375,-5.46875 -18.5625,-5.46875 -1.28125,5.84375 c -1.44855,6.71256 -0.35897,10.21326 3,9.75 3.20885,-0.44256 3.73131,-3.89689 1,-6.53125 -1.62642,-1.5687 1.25942,-1.09432 10.28125,1.71875 13.81502,4.30763 16.43356,6.24925 10.9375,8.125 -2.00335,0.68373 -3.96144,2.59722 -4.375,4.25 -0.41354,1.65278 -1.98861,4.05727 -3.5,5.3125 -1.51139,1.25523 -2.6181,3.34685 -2.4375,4.65625 0.18058,1.30939 1.81422,2.49717 3.625,2.65625 2.63742,0.23171 3.48651,-0.66753 4.21875,-4.59375 0.78938,-4.23262 2.0782,-5.39938 9.46875,-8.46875 l 8.5625,-3.5625 19.5,6.3125 c 10.73768,3.46226 19.69936,6.53933 19.90625,6.84375 0.20689,0.30442 -0.81336,1.7573 -2.28125,3.21875 -3.20481,3.19074 -1.71877,6.77798 2.5625,6.1875 2.32112,-0.32013 2.87848,-1.63178 3.375,-7.59375 0.32904,-3.95087 -0.0367,-7.83555 -0.8125,-8.65625 -0.77576,-0.82068 -5.16567,-2.3779 -9.78125,-3.46875 -6.55214,-1.54858 -9.10595,-2.94303 -11.59375,-6.34375 -1.75251,-2.39559 -2.89365,-5.51906 -2.5625,-6.9375 0.73161,-3.13377 -2.00641,-3.89637 -6.625,-1.84375 -5.07933,2.25739 -5.96854,1.48717 -4.6875,-4 1.13727,-4.87133 1.30357,-4.92994 10.96875,-4.65625 11.0677,0.31342 22.1635,-2.54776 28,-7.21875 5.64051,-4.51413 9.56361,-14.4496 17.8125,-45.21875 l 5.25,-20.875 c 0.30761,-3.9881 -1.36665,-6.4322 -4.84375,-7.90625 -3.77218,-0.88066 -8.91955,-1.0827 -11.46875,-0.4375 -4.19133,1.06084 -5.0577,0.75644 -8.84375,-3.09375 -3.27554,-3.33098 -3.80724,-4.89657 -2.46875,-7.1875 6.22777,-10.6593 7.13356,-13.0129 6.5625,-17.25 -0.78915,-5.85521 -7.63823,-12.41666 -14.65625,-14.0625 -1.57851,-0.37019 -2.74564,-0.57667 -3.71875,-0.5625 z M 452.59375,535.4375 c 0.36405,0.085 0.50523,0.8307 0.3125,1.65625 -0.19273,0.82555 -1.09448,1.32911 -1.96875,1.125 -0.87428,-0.20411 -1.01546,-0.94981 -0.3125,-1.65625 0.70296,-0.70644 1.6047,-1.20999 1.96875,-1.125 z"
         id="path7593"
         inkscape:connector-curvature="0"
         sodipodi:nodetypes="ssccssssccccccsssscccssssssscccsssscccccsssscscsscccsssssssssssscccsssssssssss"
         transform="matrix(0.63178526,-0.14749706,0.14749706,0.63178526,-264.77706,-178.96299)" />
    </g>
    <path
       style="fill:none;stroke:#000000;stroke-width:10.01726818;stroke-linecap:round;stroke-linejoin:miter;stroke-miterlimit:4;stroke-opacity:1;stroke-dasharray:none"
       d="m 325.24258,502.22952 -135.83734,0"
       id="path3800"
       inkscape:connector-curvature="0" />
    <path
       style="fill:none;stroke:#000000;stroke-width:8.34772301;stroke-linecap:round;stroke-linejoin:miter;stroke-miterlimit:4;stroke-opacity:1;stroke-dasharray:none"
       d="m 334.36147,523.76929 -50.25597,0"
       id="path3802"
       inkscape:connector-curvature="0" />
    <path
       inkscape:connector-curvature="0"
       id="path3804"
       d="m 314.60519,483.38221 -58.65228,0"
       style="fill:none;stroke:#000000;stroke-width:8.34772301;stroke-linecap:round;stroke-linejoin:miter;stroke-miterlimit:4;stroke-opacity:1;stroke-dasharray:none" />
    <path
       style="fill:none;stroke:#000000;stroke-width:3.33908939;stroke-linecap:butt;stroke-linejoin:miter;stroke-miterlimit:4;stroke-opacity:1;stroke-dasharray:none"
       d="m 500.65086,541.72528 c 0.77031,-9.49703 1.88631,-20.5523 12.81149,-18.64824 19.35268,2.30081 9.83899,14.85392 5.44443,19.24238 5.63661,-2.38518 19.67078,4.10742 13.92026,18.25592 -4.16666,10.34827 -12.24973,5.72044 -18.28383,2.10886 1.50508,8.63606 -4.4463,14.3839 -11.61058,14.83783 -3.66071,0.50513 -9.97435,-4.44686 -11.1319,-8.35563 -1.16876,-3.44695 0.66461,-6.85487 1.21704,-10.20337 l 0.004,-0.29807 -0.008,-0.29802"
       id="path3806"
       inkscape:connector-curvature="0"
       sodipodi:nodetypes="cccccccccc" />
    <path
       sodipodi:nodetypes="cccccccccc"
       inkscape:connector-curvature="0"
       id="path3939"
       d="m 526.7031,490.01277 c -4.04908,-4.30259 -8.67147,-9.41218 -3.26107,-13.65406 9.09076,-7.95958 10.91672,1.64152 11.11152,5.49033 1.24226,-3.58832 10.05386,-7.35519 14.17563,1.17536 3.031,6.22117 -2.45276,8.02144 -6.61861,9.30017 4.59741,2.89641 4.77139,8.02752 2.00666,11.51687 -1.28701,1.8965 -6.18549,2.74684 -8.46403,1.65534 -2.07075,-0.89436 -2.8775,-3.15561 -4.18858,-4.80202 l -0.13555,-0.12563 -0.14062,-0.11997"
       style="fill:none;stroke:#000000;stroke-width:3.33908939;stroke-linecap:butt;stroke-linejoin:miter;stroke-miterlimit:4;stroke-opacity:1;stroke-dasharray:none" />
    <g
       transform="matrix(0.92340403,0.18808827,-0.18808827,0.92340403,31.895622,62.66813)"
       style="font-size:16.85161018px;font-style:normal;font-variant:normal;font-weight:normal;font-stretch:normal;line-height:125%;letter-spacing:0px;word-spacing:0px;fill:#000000;fill-opacity:1;stroke:none;font-family:Futura Hv BT;-inkscape-font-specification:Futura Hv BT"
       id="text3941">
      <path
         d="m 435.88121,266.82269 1.78555,6.53329 c 0.11519,0.41691 0.21941,0.85164 0.31268,1.30419 0.0932,0.45256 0.18924,0.99974 0.28799,1.64155 -10e-6,-0.44433 0.0356,-0.93528 0.10697,-1.47287 0.0384,-0.27976 0.0781,-0.52524 0.11931,-0.73644 0.0411,-0.21118 0.0974,-0.45666 0.16868,-0.73643 l 1.56338,-6.53329 2.54255,0 -3.15145,12.04627 -2.47672,0 -2.15582,-7.68526 c -0.0987,-0.34558 -0.18103,-0.6994 -0.24685,-1.06145 -0.0384,-0.2249 -0.0686,-0.42375 -0.0905,-0.59656 -0.022,-0.17278 -0.0329,-0.3442 -0.0329,-0.51427 -10e-6,0.17555 -0.011,0.35246 -0.0329,0.53073 -0.022,0.17829 -0.0562,0.41554 -0.10285,0.71175 -0.0466,0.29623 -0.11932,0.60616 -0.21806,0.9298 l -2.17227,7.68526 -2.47673,0 -3.15145,-12.04627 2.57547,0 1.58807,6.68963 c 0.011,0.0439 0.0384,0.18925 0.0823,0.4361 0.0439,0.24685 0.0878,0.51839 0.13165,0.8146 0.0274,0.2688 0.0549,0.53211 0.0823,0.78992 0.0274,0.25783 0.0411,0.47999 0.0412,0.6665 0.0987,-0.70764 0.29073,-1.59081 0.57598,-2.64952 l 0.0411,-0.1728 1.76909,-6.57443 z"
         id="path3849"
         inkscape:connector-curvature="0" />
      <path
         d="m 444.45513,278.86896 0,-12.04627 2.57547,0 0,4.83003 5.22498,0 0,-4.83003 2.57547,0 0,12.04627 -2.57547,0 0,-5.03574 -5.22498,0 0,5.03574 z"
         id="path3851"
         inkscape:connector-curvature="0" />
      <path
         d="m 469.85597,272.87051 c -1e-5,0.86672 -0.1591,1.68132 -0.47724,2.44381 -0.31818,0.7625 -0.78445,1.43722 -1.39882,2.02417 -0.61439,0.58695 -1.31791,1.04225 -2.11056,1.3659 -0.79268,0.32365 -1.60316,0.48547 -2.43147,0.48547 -0.7241,0 -1.44271,-0.12342 -2.15583,-0.37027 -0.71312,-0.24685 -1.36042,-0.60616 -1.94188,-1.07791 -0.75152,-0.59793 -1.33025,-1.32065 -1.73618,-2.16817 -0.40593,-0.84751 -0.60889,-1.74851 -0.60889,-2.703 0,-0.86671 0.15771,-1.67994 0.47313,-2.4397 0.31541,-0.75974 0.77757,-1.43309 1.38647,-2.02005 0.60889,-0.58695 1.31515,-1.04362 2.11879,-1.37002 0.80363,-0.32638 1.62509,-0.48957 2.46439,-0.48959 0.85025,2e-5 1.66759,0.16184 2.45204,0.48548 0.78442,0.32365 1.48245,0.78033 2.09411,1.37001 0.61162,0.58971 1.07652,1.26717 1.3947,2.0324 0.31814,0.76524 0.47723,1.57573 0.47724,2.43147 z m -6.41809,4.02365 c 1.08613,0 1.98576,-0.38399 2.69889,-1.15197 0.71311,-0.76797 1.06967,-1.7252 1.06968,-2.87168 -1e-5,-1.1355 -0.35932,-2.0941 -1.07791,-2.8758 -0.71862,-0.78168 -1.61551,-1.17253 -2.69066,-1.17254 -1.08615,10e-6 -1.98989,0.38949 -2.71124,1.16842 -0.72135,0.77896 -1.08203,1.73893 -1.08202,2.87992 -10e-6,1.15745 0.35381,2.11742 1.06145,2.87991 0.70763,0.7625 1.61823,1.14374 2.73181,1.14374 z"
         id="path3853"
         inkscape:connector-curvature="0" />
      <path
         d="m 484.37074,272.87051 c -2e-5,0.86672 -0.1591,1.68132 -0.47725,2.44381 -0.31817,0.7625 -0.78444,1.43722 -1.39881,2.02417 -0.6144,0.58695 -1.31792,1.04225 -2.11057,1.3659 -0.79267,0.32365 -1.60316,0.48547 -2.43147,0.48547 -0.7241,0 -1.4427,-0.12342 -2.15582,-0.37027 -0.71313,-0.24685 -1.36042,-0.60616 -1.94188,-1.07791 -0.75153,-0.59793 -1.33025,-1.32065 -1.73618,-2.16817 -0.40593,-0.84751 -0.6089,-1.74851 -0.6089,-2.703 0,-0.86671 0.15771,-1.67994 0.47313,-2.4397 0.31542,-0.75974 0.77758,-1.43309 1.38647,-2.02005 0.6089,-0.58695 1.31516,-1.04362 2.1188,-1.37002 0.80363,-0.32638 1.62509,-0.48957 2.46438,-0.48959 0.85025,2e-5 1.6676,0.16184 2.45204,0.48548 0.78443,0.32365 1.48246,0.78033 2.09411,1.37001 0.61163,0.58971 1.07653,1.26717 1.3947,2.0324 0.31815,0.76524 0.47723,1.57573 0.47725,2.43147 z m -6.4181,4.02365 c 1.08613,0 1.98576,-0.38399 2.69889,-1.15197 0.71311,-0.76797 1.06967,-1.7252 1.06968,-2.87168 -10e-6,-1.1355 -0.35931,-2.0941 -1.07791,-2.8758 -0.71861,-0.78168 -1.6155,-1.17253 -2.69066,-1.17254 -1.08614,10e-6 -1.98989,0.38949 -2.71123,1.16842 -0.72135,0.77896 -1.08203,1.73893 -1.08203,2.87992 0,1.15745 0.35382,2.11742 1.06146,2.87991 0.70763,0.7625 1.61823,1.14374 2.7318,1.14374 z"
         id="path3855"
         inkscape:connector-curvature="0" />
      <path
         d="m 485.77778,277.33849 1.43173,-1.62098 c 0.18102,0.43885 0.47313,0.78718 0.87632,1.045 0.40318,0.25782 0.85162,0.38673 1.34533,0.38673 0.6034,0 1.08064,-0.14262 1.43173,-0.42788 0.35106,-0.28524 0.5266,-0.66923 0.52661,-1.15196 -10e-6,-0.56501 -0.58422,-1.13276 -1.75264,-1.70326 l -0.89688,-0.44433 c -1.04226,-0.53758 -1.76909,-1.07242 -2.18051,-1.60453 -0.41142,-0.53209 -0.61712,-1.15744 -0.61712,-1.87606 0,-0.99287 0.39358,-1.80884 1.18076,-2.44792 0.78718,-0.63906 1.80886,-0.95859 3.06505,-0.9586 0.37301,1e-5 0.71175,0.0302 1.0162,0.0905 0.30444,0.0604 0.5938,0.15909 0.86809,0.29622 0.53209,0.24686 1.0011,0.64456 1.40704,1.19311 l -1.52224,1.45641 c -0.17554,-0.34009 -0.41553,-0.59929 -0.71998,-0.77758 -0.30445,-0.17827 -0.66512,-0.26741 -1.08202,-0.26742 -0.51565,1e-5 -0.92843,0.12618 -1.23836,0.37851 -0.30994,0.25234 -0.46491,0.58422 -0.4649,0.99562 -1e-5,0.63085 0.61986,1.21232 1.8596,1.74441 l 0.56775,0.24685 c 1.00934,0.4553 1.76223,0.97917 2.25868,1.57161 0.49643,0.59244 0.74465,1.26442 0.74466,2.01594 -10e-6,1.11905 -0.38537,2.01731 -1.15608,2.69477 -0.77073,0.67747 -1.80612,1.0162 -3.10619,1.0162 -0.92706,0 -1.71698,-0.15771 -2.36976,-0.47313 -0.65278,-0.31542 -1.14374,-0.77483 -1.47287,-1.37824 z"
         id="path3857"
         inkscape:connector-curvature="0" />
      <path
         d="m 495.99736,278.86896 0,-12.04627 2.57546,0 0,4.83003 5.22499,0 0,-4.83003 2.57546,0 0,12.04627 -2.57546,0 0,-5.03574 -5.22499,0 0,5.03574 z"
         id="path3859"
         inkscape:connector-curvature="0" />
      <path
         d="m 509.36839,275.10861 0,-8.55746 2.33684,0 0,8.55746 z m -0.23863,2.66598 c 0,-0.38947 0.13714,-0.71998 0.41142,-0.99151 0.27428,-0.27154 0.60889,-0.4073 1.00386,-0.40731 0.38947,1e-5 0.71997,0.13303 0.99151,0.39908 0.27153,0.26605 0.4073,0.5993 0.4073,0.99974 0,0.39496 -0.1344,0.72958 -0.40319,1.00386 -0.26879,0.27427 -0.60067,0.41141 -0.99562,0.41141 -0.37851,0 -0.70901,-0.14125 -0.99152,-0.42376 -0.2825,-0.2825 -0.42376,-0.61301 -0.42376,-0.99151 z"
         id="path3861"
         inkscape:connector-curvature="0" />
    </g>
    <g
       style="font-size:131.8678894px;font-style:normal;font-variant:normal;font-weight:normal;font-stretch:normal;text-align:center;line-height:125%;letter-spacing:0px;word-spacing:0px;text-anchor:middle;fill:#000000;fill-opacity:1;stroke:none;font-family:Futura Hv BT;-inkscape-font-specification:Futura Hv BT"
       id="text3968"
       transform="matrix(0.94236521,0,0,0.94236521,31.895622,62.66813)">
      <path
         d="m 26.795476,101.29234 0,-66.96416 18.286367,0 0,66.96416 z m -1.86727,20.86192 c -1.1e-5,-3.04772 1.073131,-5.63399 3.219431,-7.75883 2.14627,-2.12481 4.764738,-3.18722 7.855411,-3.18724 3.047703,2e-5 5.633976,1.04097 7.758828,3.12285 2.124793,2.08191 3.187204,4.68965 3.187237,7.82322 -3.3e-5,3.09065 -1.051713,5.70912 -3.155042,7.85541 -2.10339,2.14628 -4.700395,3.21942 -7.791023,3.21943 -2.961896,-10e-6 -5.548169,-1.10534 -7.758828,-3.31602 -2.210689,-2.21067 -3.316025,-4.79694 -3.316014,-7.75882 z"
         id="path3830"
         inkscape:connector-curvature="0" />
      <path
         d="m 144.62665,60.985068 c -3.99218,-3.562763 -8.17744,-6.224157 -12.55578,-7.984188 -2.18929,-0.858437 -4.38923,-1.502322 -6.59984,-1.931659 -2.21074,-0.429177 -4.60385,-0.643806 -7.17933,-0.643886 -10.04467,8e-5 -18.05032,3.015611 -24.016952,9.046601 -5.966709,6.031132 -8.950045,14.090433 -8.950018,24.177926 -2.7e-5,9.872958 2.768681,17.728358 8.306132,23.566238 5.53738,5.83791 13.092308,8.75686 22.664798,8.75685 5.36565,1e-5 10.40942,-0.90143 15.13132,-2.70432 4.72175,-1.80287 9.07871,-4.55011 13.07089,-8.24175 l -0.12878,20.66875 c -4.16388,2.48969 -8.63888,4.36769 -13.42502,5.634 -4.78629,1.26631 -9.75494,1.89946 -14.90597,1.89947 -14.98113,-10e-6 -27.300804,-4.66818 -36.959066,-14.00453 -9.658304,-9.33633 -14.487445,-21.194551 -14.487439,-35.574708 -6e-6,-14.251286 4.839867,-26.055855 14.519633,-35.41374 9.679725,-9.357721 22.117452,-14.036622 37.313202,-14.036719 5.15103,9.7e-5 10.08748,0.536668 14.80938,1.609716 2.36085,0.515203 4.73249,1.180551 7.11495,1.996047 2.38229,0.815681 4.71101,1.802972 6.98616,2.961876 z"
         id="path3832"
         inkscape:connector-curvature="0" />
      <path
         d="m 212.29908,94.853481 -10.55974,-30.455816 -1.15899,-4.635981 -1.48094,-8.048577 c -0.55808,3.219507 -1.09465,5.966752 -1.60972,8.241743 l -1.15899,4.829147 -10.1734,30.069484 z m -60.0102,35.864459 35.86446,-94.264935 23.05113,0 36.37957,94.264935 -22.92235,0 -7.66225,-20.02486 -36.50834,0 -6.56764,20.02486 z"
         id="path3834"
         inkscape:connector-curvature="0" />
      <path
         d="m 338.56516,36.453005 0,58.658031 c -9e-5,12.748964 -3.35903,22.289204 -10.07682,28.620744 -6.71795,6.33154 -16.88061,9.49731 -30.48801,9.49732 -13.73628,-10e-6 -23.98479,-3.16578 -30.74557,-9.49732 -6.76081,-6.33154 -10.14121,-15.87178 -10.1412,-28.620744 l 0,-58.658031 20.02486,0 0,55.502988 c -3e-5,7.769591 1.717,13.618217 5.15109,17.545897 3.43402,3.92772 8.56364,5.89158 15.38888,5.89156 6.82513,2e-5 12.00841,-1.9853 15.54985,-5.95595 3.5413,-3.9706 5.31199,-9.797767 5.31206,-17.481507 l 0,-55.502988 z"
         id="path3836"
         inkscape:connector-curvature="0" />
      <path
         d="m 394.71204,53.580377 0,77.137563 -20.21803,0 0,-77.137563 -23.05112,0 0,-17.127372 66.44905,0 0,17.127372 z"
         id="path3838"
         inkscape:connector-curvature="0" />
      <path
         d="m 431.47796,130.71794 0,-94.264935 20.15363,0 0,94.264935 z"
         id="path3840"
         inkscape:connector-curvature="0" />
      <path
         d="m 569.59152,83.778639 c -1.1e-4,6.782308 -1.24496,13.156775 -3.73454,19.123421 -2.4898,5.9667 -6.13848,11.24656 -10.94607,15.8396 -4.80777,4.59306 -10.31299,8.15589 -16.51568,10.68851 -6.20284,2.53262 -12.54511,3.79892 -19.02684,3.79893 -5.66624,-10e-6 -11.28951,-0.96583 -16.86981,-2.89749 -5.58038,-1.93166 -10.64562,-4.74329 -15.19572,-8.43491 -5.88084,-4.67889 -10.4095,-10.33435 -13.586,-16.9664 -3.17651,-6.631995 -4.76476,-13.682542 -4.76475,-21.151661 -1e-5,-6.782214 1.2341,-13.14595 3.70234,-19.091225 2.46822,-5.945144 6.08471,-11.214274 10.84948,-15.807406 4.76474,-4.592968 10.29142,-8.166533 16.58007,-10.720705 6.28858,-2.553987 12.71671,-3.831026 19.28439,-3.831123 6.65343,9.7e-5 13.04936,1.266405 19.18781,3.798929 6.1383,2.532709 11.6006,6.106274 16.38691,10.720705 4.78612,4.614595 8.42407,9.915919 10.91387,15.903988 2.48958,5.988202 3.73443,12.330474 3.73454,19.026837 z m -50.22313,31.486031 c 8.49924,2e-5 15.53905,-3.00478 21.11947,-9.0144 5.58026,-6.00958 8.37044,-13.500112 8.37052,-22.471631 -8e-5,-8.885574 -2.81172,-16.38684 -8.43491,-22.503822 -5.62334,-6.116843 -12.64169,-9.1753 -21.05508,-9.175378 -8.49934,7.8e-5 -15.57135,3.047803 -21.21604,9.143184 -5.64477,6.095519 -8.46714,13.607517 -8.46711,22.536016 -3e-5,9.05737 2.76868,16.569371 8.30613,22.536021 5.53738,5.96669 12.66305,8.95003 21.37702,8.95001 z"
         id="path3842"
         inkscape:connector-curvature="0" />
      <path
         d="m 586.65449,130.71794 0,-94.264935 20.9263,0 41.72383,54.859102 c 1.07307,1.459513 2.3823,3.648724 3.9277,6.567639 1.33062,2.618504 2.83302,5.923784 4.5072,9.915844 -0.17178,-1.15897 -0.35421,-2.4682 -0.5473,-3.9277 -0.19325,-1.45945 -0.35422,-2.91892 -0.48291,-4.378428 -8e-5,-1.073112 -0.0537,-2.833066 -0.16097,-5.279867 -0.1074,-2.446729 -0.16106,-4.120831 -0.16098,-5.022312 l 0,-52.734278 19.2522,0 0,94.264935 -19.7673,0 -42.88282,-55.889319 c -1.15904,-1.545269 -2.43607,-3.691555 -3.83113,-6.438862 -1.39512,-2.747182 -2.92971,-6.138313 -4.60378,-10.173401 0.42923,2.489763 0.77263,5.237008 1.03021,8.241743 -3e-5,1.116132 0.0536,2.90828 0.16098,5.376449 0.10728,2.468287 0.16094,4.153121 0.16097,5.054507 l 0,53.828883 z"
         id="path3844"
         inkscape:connector-curvature="0" />
      <path
         d="m 699.01264,101.29234 0,-66.96416 18.28637,0 0,66.96416 z m -1.86727,20.86192 c -10e-6,-3.04772 1.07313,-5.63399 3.21943,-7.75883 2.14627,-2.12481 4.76474,-3.18722 7.85541,-3.18724 3.0477,2e-5 5.63398,1.04097 7.75883,3.12285 2.12479,2.08191 3.1872,4.68965 3.18724,7.82322 -4e-5,3.09065 -1.05172,5.70912 -3.15505,7.85541 -2.10339,2.14628 -4.70039,3.21942 -7.79102,3.21943 -2.96189,-10e-6 -5.54817,-1.10534 -7.75883,-3.31602 -2.21069,-2.21067 -3.31602,-4.79694 -3.31601,-7.75882 z"
         id="path3846"
         inkscape:connector-curvature="0" />
    </g>
    <g
       style="font-size:151.50212097px;font-style:normal;font-variant:normal;font-weight:normal;font-stretch:normal;text-align:center;line-height:87.00000048%;letter-spacing:0px;word-spacing:0px;text-anchor:middle;fill:#000000;fill-opacity:1;stroke:none;font-family:Futura Hv BT;-inkscape-font-specification:Futura Hv BT"
       id="text3972"
       transform="matrix(0.94236521,0,0,0.94236521,31.895622,62.66813)">
      <path
         d="m 158.9604,881.00751 -26.70521,0 -28.48062,-50.59934 0,50.59934 -23.15438,0 0,-108.30035 33.14109,0 c 13.21692,1.1e-4 23.09266,2.55227 29.62725,7.65648 6.53443,5.10442 9.80168,12.78555 9.80177,23.04342 -9e-5,7.44695 -2.21935,13.78419 -6.65781,19.01174 -4.43861,5.22766 -10.25802,8.33464 -17.45825,9.32093 z m -55.18583,-62.13954 3.47685,0 c 9.32089,6e-5 15.49785,-1.0356 18.5309,-3.10698 3.03294,-2.07125 4.54944,-5.62208 4.5495,-10.65249 -6e-5,-5.32617 -1.62752,-9.11125 -4.88239,-11.35527 -3.25498,-2.24383 -9.32098,-3.3658 -18.19801,-3.36589 l -3.47685,0 z"
         id="path3807"
         inkscape:connector-curvature="0" />
      <path
         d="m 283.23948,827.07926 c -1.2e-4,7.79215 -1.43032,15.11573 -4.29059,21.97077 -2.86051,6.8551 -7.05245,12.9211 -12.57586,18.19801 -5.52361,5.27694 -11.84852,9.37025 -18.97475,12.27995 -7.1264,2.90971 -14.41299,4.36456 -21.8598,4.36457 -6.50992,-10e-6 -12.97045,-1.10964 -19.38162,-3.32891 -6.41126,-2.21926 -12.23068,-5.44953 -17.45825,-9.69081 -6.75647,-5.37554 -11.95942,-11.87307 -15.60887,-19.49258 -3.64947,-7.61945 -5.4742,-15.71978 -5.47419,-24.301 -1e-5,-7.79204 1.41785,-15.10329 4.2536,-21.93378 2.83571,-6.83033 6.99068,-12.884 12.46489,-18.16102 5.47417,-5.27683 11.82374,-9.38247 19.04873,-12.31694 7.22491,-2.93426 14.61013,-4.40144 22.15571,-4.40155 7.64407,1.1e-4 14.99231,1.45496 22.04474,4.36456 7.05225,2.90981 13.32784,7.01546 18.8268,12.31694 5.49874,5.30168 9.67836,11.39234 12.53887,18.27199 2.86027,6.8798 4.29047,14.1664 4.29059,21.8598 z m -57.701,36.17409 c 9.76471,2e-5 17.8527,-3.45217 24.26401,-10.35659 6.41112,-6.90436 9.61673,-15.51018 9.61683,-25.8175 -1e-4,-10.20857 -3.23036,-18.82673 -9.69081,-25.85449 -6.46062,-7.0276 -14.52396,-10.54143 -24.19003,-10.54153 -9.76484,1e-4 -17.88983,3.50161 -24.37498,10.50455 -6.48523,7.0031 -9.72783,15.63358 -9.7278,25.89147 -3e-5,10.40595 3.18092,19.03644 9.54286,25.89148 6.36186,6.8551 14.54849,10.28263 24.55992,10.28261 z"
         id="path3809"
         inkscape:connector-curvature="0" />
      <path
         d="m 390.06032,800.89188 c -4.58659,-4.09323 -9.395,-7.15089 -14.42526,-9.17298 -2.51525,-0.98625 -5.04275,-1.726 -7.5825,-2.21927 -2.5399,-0.49307 -5.28933,-0.73966 -8.24828,-0.73975 -11.54026,9e-5 -20.73789,3.46461 -27.59292,10.39358 -6.85511,6.92912 -10.28265,16.1884 -10.28261,27.77785 -4e-5,11.34298 3.18091,20.368 9.54285,27.07509 6.36186,6.70714 15.04166,10.0607 26.03943,10.06068 6.16457,2e-5 11.95932,-1.03564 17.38428,-3.10697 5.42479,-2.0713 10.43047,-5.22759 15.01705,-9.46889 l -0.14795,23.74619 c -4.78385,2.86039 -9.92515,5.01801 -15.42392,6.47287 -5.49893,1.45485 -11.20738,2.18227 -17.12536,2.18228 -17.21172,-10e-6 -31.36571,-5.36323 -42.46202,-16.08971 -11.09636,-10.72644 -16.64453,-24.35027 -16.64452,-40.87154 -10e-6,-16.3732 5.56049,-29.93539 16.68151,-40.6866 11.12097,-10.75103 25.41058,-16.12658 42.86888,-16.12669 5.91798,1.1e-4 11.58944,0.61657 17.0144,1.84939 2.71235,0.59191 5.43712,1.35632 8.17431,2.29324 2.737,0.93713 5.41245,2.07142 8.02636,3.40288 z"
         id="path3811"
         inkscape:connector-curvature="0" />
      <path
         d="m 411.73518,881.00751 0,-108.30035 23.15438,0 0,49.04586 36.10011,-49.04586 26.77919,0 -38.76324,49.34176 40.16877,58.95859 -27.88882,0 -36.39601,-56.66535 0,56.66535 z"
         id="path3813"
         inkscape:connector-curvature="0" />
      <path
         d="m 509.97484,881.00751 0,-108.30035 63.767,0 0,19.52957 -40.61263,0 0,22.26667 40.61263,0 0,19.67752 -40.61263,0 0,27.14907 40.61263,0 0,19.67752 z"
         id="path3815"
         inkscape:connector-curvature="0" />
      <path
         d="m 636.84305,792.38468 0,88.62283 -23.22836,0 0,-88.62283 -26.48328,0 0,-19.67752 76.34287,0 0,19.67752 z"
         id="path3817"
         inkscape:connector-curvature="0" />
      <path
         d="m 229.68112,932.69873 c -4.58659,-4.09324 -9.395,-7.15089 -14.42526,-9.17298 -2.51525,-0.98625 -5.04275,-1.72601 -7.5825,-2.21927 -2.5399,-0.49308 -5.28933,-0.73966 -8.24828,-0.73976 -11.54026,10e-5 -20.73789,3.46462 -27.59292,10.39358 -6.85511,6.92913 -10.28265,16.1884 -10.28261,27.77786 -4e-5,11.34297 3.18091,20.36799 9.54285,27.07508 6.36186,6.70715 15.04166,10.06071 26.03943,10.06069 6.16457,2e-5 11.95932,-1.03564 17.38428,-3.10698 5.42479,-2.07129 10.43047,-5.22758 15.01705,-9.46888 l -0.14795,23.74623 c -4.78385,2.8603 -9.92515,5.018 -15.42392,6.4728 -5.49893,1.4549 -11.20738,2.1823 -17.12536,2.1823 -17.21172,0 -31.36571,-5.3632 -42.46202,-16.0897 -11.09636,-10.72644 -16.64453,-24.35028 -16.64452,-40.87154 -1e-5,-16.37321 5.56049,-29.9354 16.68151,-40.68661 11.12097,-10.75102 25.41058,-16.12658 42.86888,-16.12669 5.91798,1.1e-4 11.58944,0.61658 17.0144,1.84939 2.71235,0.59192 5.43712,1.35633 8.17431,2.29325 2.737,0.93713 5.41245,2.07142 8.02636,3.40288 z"
         id="path3819"
         inkscape:connector-curvature="0" />
      <path
         d="m 251.35598,1012.8144 0,-108.30039 23.15438,0 0,43.4237 46.97453,0 0,-43.4237 23.15438,0 0,108.30039 -23.15438,0 0,-45.27314 -46.97453,0 0,45.27314 z"
         id="path3821"
         inkscape:connector-curvature="0" />
      <path
         d="m 424.90285,971.60992 -12.13201,-34.99048 -1.33156,-5.32625 -1.70144,-9.24695 c -0.64117,3.69887 -1.25764,6.85516 -1.84939,9.46888 l -1.33156,5.54817 -11.68815,34.54663 z m -68.9453,41.20448 41.20443,-108.30039 26.48328,0 41.79624,108.30039 -26.33533,0 -8.8031,-23.00647 -41.94419,0 -7.54552,23.00647 z"
         id="path3823"
         inkscape:connector-curvature="0" />
      <path
         d="m 477.27762,1012.8144 0,-108.30039 23.15437,0 0,108.30039 z"
         id="path3825"
         inkscape:connector-curvature="0" />
      <path
         d="m 603.40609,1012.8144 -26.70521,0 -28.48062,-50.59939 0,50.59939 -23.15438,0 0,-108.30039 33.14109,0 c 13.21692,1.1e-4 23.09266,2.55226 29.62725,7.65648 6.53443,5.10441 9.80168,12.78554 9.80177,23.04341 -9e-5,7.44695 -2.21935,13.78419 -6.65781,19.01174 -4.43861,5.22767 -10.25802,8.33464 -17.45825,9.32093 z m -55.18583,-62.13959 3.47685,0 c 9.32089,6e-5 15.49785,-1.03559 18.5309,-3.10698 3.03294,-2.07125 4.54944,-5.62207 4.5495,-10.65249 -6e-5,-5.32616 -1.62752,-9.11125 -4.88239,-11.35526 -3.25498,-2.24384 -9.32098,-3.3658 -18.19801,-3.36589 l -3.47685,0 z"
         id="path3827"
         inkscape:connector-curvature="0" />
    </g>
    <rect
       transform="matrix(0.70710678,0.70710678,-0.70710678,0.70710678,0,0)"
       ry="27.298634"
       rx="27.298634"
       y="-111.27486"
       x="429.66183"
       height="369.97842"
       width="369.97842"
       id="rect3979"
       style="fill:none;stroke:#000000;stroke-width:6.67817879;stroke-miterlimit:4;stroke-dasharray:none" />
  </g>
</svg>
